<svg width="60" height="120" viewBox="0 0 60 120" fill="none" xmlns="http://www.w3.org/2000/svg">
<path d="M4.03361 72.1992L4.53782 69.7095L2.52101 65.7261L1.51261 61.2448V55.7676L2.01681 51.2863L3.02521 46.805L4.53782 42.8216L6.55462 38.3402L8.57143 34.8548V31.8672L9.07563 28.8797L9.57983 24.8963V21.4108L9.07563 19.4191L8.57143 15.9336L8.06723 12.9461L9.07563 10.9544L7.56303 9.95851V10.9544L7.05882 12.9461L6.05042 15.9336L5.04202 17.9253L3.02521 19.4191V17.9253L2.52101 16.4315L2.01681 14.4398L1.0084 12.4481L0 10.9544V9.46058L1.0084 6.97095L3.02521 4.97925L6.05042 2.98755L9.57983 1.49378L11.5966 0.497925L13.1092 0L14.6219 0.497925L15.6303 0H21.6807L25.7143 0.995851L27.2269 1.9917L27.7311 1.49378H29.7479L31.2605 1.9917L35.2941 4.48133L38.3193 7.46888L40.3361 9.95851V12.4481L39.3277 13.9419L38.3193 15.9336L36.8067 19.917L34.7899 21.9087H33.2773L32.7731 19.917L32.2689 18.9212V17.4274L31.7647 14.9378L30.7563 13.444V14.4398V18.4232V21.9087L30.2521 24.8963L30.7563 28.3817V30.8714L32.7731 34.3568L34.2857 37.3444L35.2941 42.8216L35.7983 43.3195L37.3109 45.8091L42.3529 51.2863L46.3866 55.7676L50.9244 62.7386L53.4454 69.2116L55.4622 76.1826L56.9748 81.1618L58.4874 86.639L59.4958 93.112L60 100.581L58.9916 106.058L57.9832 110.041V111.037L59.4958 112.531V114.523L58.4874 115.519H56.9748L53.4454 116.017L48.9076 116.515H45.3782L42.3529 117.51H40.8403H37.8151L37.3109 117.012H35.7983H35.2941L34.2857 116.017L33.2773 116.515L32.7731 116.017L32.2689 115.519L32.7731 114.025L30.7563 114.523L27.2269 115.021H23.6975L21.1765 114.523L20.6723 116.017L19.1597 119.004L17.6471 119.502H16.1345L15.6303 119.004L14.6219 119.502H13.6134L12.1008 120H10.084L9.57983 119.004L9.07563 119.502H8.06723L7.56303 117.51L8.57143 116.017L10.084 114.025L12.605 112.033L15.1261 109.544L16.1345 108.05L17.1429 105.062L18.6555 101.079L20.1681 97.0954L19.1597 94.6058V91.6183L19.6639 88.1328V85.6432L16.6387 82.1577L13.6134 78.6722L12.1008 76.6805V77.1784L10.5882 81.1618L8.57143 86.1411V87.1369L11.5966 92.6141L12.605 95.1037L13.6134 99.5851L15.6303 103.071V105.062L14.6219 106.058L14.1176 108.05L12.605 109.046H11.5966L11.0924 110.041H10.5882L9.57983 109.544H9.07563L8.06723 108.548L7.56303 106.556L7.05882 104.564L6.05042 101.577L4.53782 98.0913V95.1037L3.52941 92.6141L2.52101 89.6266V86.1411L3.52941 81.6598V74.6888L4.03361 72.1992Z" fill="#CCCCCC"/>
</svg>
