<svg width="294" height="135" viewBox="0 0 294 135" fill="none" xmlns="http://www.w3.org/2000/svg">
<g clip-path="url(#clip0_1_2)">
<path d="M11.032 85.352L16.984 83.432V36.68L11.032 34.76V31.112H33.208V35.24L25.912 37.16V82.76L43.288 84.296L44.824 71.816H50.008L50.392 89H11.032V85.352ZM70.7403 89.864C67.9883 89.864 65.3963 89.128 62.9643 87.656C60.5323 86.184 58.5483 83.912 57.0123 80.84C55.5403 77.768 54.8043 73.992 54.8043 69.512C54.8043 66.312 54.9963 63.368 55.3803 60.68C55.8283 57.928 56.4043 55.912 57.1083 54.632C57.7483 53.672 59.0603 52.392 61.0443 50.792C63.0923 49.192 65.1403 47.784 67.1883 46.568C69.3003 45.352 70.7403 44.744 71.5083 44.744C74.9643 44.744 77.7483 45.288 79.8603 46.376C82.0363 47.464 83.7003 49.544 84.8523 52.616C86.0683 55.688 86.6763 60.104 86.6763 65.864L64.0203 67.784C64.0203 71.624 64.5323 74.696 65.5563 77C66.5803 79.24 67.7643 80.808 69.1083 81.704C70.5163 82.6 71.7963 83.048 72.9483 83.048L77.4603 82.856L85.3323 82.568V86.504C82.9643 87.272 80.1483 88.04 76.8843 88.808C73.6843 89.512 71.6363 89.864 70.7403 89.864ZM77.3643 62.12C77.3643 58.28 76.8523 55.4 75.8282 53.48C74.8043 51.496 73.1083 50.504 70.7403 50.504C69.3323 50.504 68.1163 50.728 67.0923 51.176C66.2603 51.56 65.5563 53.032 64.9803 55.592C64.4683 58.152 64.2123 60.904 64.2123 63.848L77.3643 62.12ZM124.657 85.352L130.609 83.432V36.68L124.657 34.76V31.112H149.809C154.801 31.112 158.609 32.424 161.233 35.048C163.921 37.672 165.265 41.928 165.265 47.816C165.265 54.92 163.537 60.136 160.081 63.464C156.689 66.728 152.337 68.36 147.025 68.36H139.537V82.952L147.697 84.872V89H124.657V85.352ZM148.177 62.888C150.161 62.888 151.633 62.664 152.593 62.216C153.617 61.768 154.417 60.712 154.993 59.048C155.569 57.32 155.857 54.632 155.857 50.984C155.857 46.184 155.377 42.504 154.417 39.944C153.521 37.32 152.177 36.008 150.385 36.008L139.537 36.968V62.888H148.177ZM185.093 89.864C182.469 89.864 180.005 89.128 177.701 87.656C175.461 86.12 173.637 83.784 172.229 80.648C170.821 77.512 170.117 73.608 170.117 68.936C170.117 65.928 170.309 63.144 170.693 60.584C171.141 57.96 171.717 55.976 172.421 54.632C173.445 53.16 175.717 51.208 179.237 48.776C182.821 46.344 185.189 45.128 186.341 45.128C187.621 45.128 193.221 45.864 203.141 47.336V83.432L206.405 84.776V88.328C201.349 89.352 198.533 89.864 197.957 89.864C197.701 89.864 197.093 89.416 196.133 88.52C195.173 87.624 194.693 87.016 194.693 86.696V82.952C194.309 83.272 192.709 84.52 189.893 86.696C187.077 88.808 185.477 89.864 185.093 89.864ZM185.669 82.76C186.373 82.76 189.285 81.48 194.405 78.92V52.52C192.805 52.008 190.725 51.56 188.165 51.176C185.605 50.728 183.877 50.568 182.981 50.696C181.765 50.888 180.837 52.264 180.197 54.824C179.621 57.384 179.333 61.864 179.333 68.264C179.333 71.528 179.685 74.248 180.389 76.424C181.157 78.6 182.021 80.2 182.981 81.224C184.005 82.248 184.901 82.76 185.669 82.76ZM224.476 90.056C224.284 90.056 223.868 89.8 223.228 89.288L212.86 51.464L209.308 50.408V46.472C214.172 45.704 216.892 45.32 217.468 45.32C217.788 45.32 218.46 45.704 219.484 46.472C220.508 47.176 221.084 47.752 221.212 48.2L226.78 71.624L228.7 79.88H229.756L236.38 57.8L234.556 51.368L231.004 50.408V46.472C235.868 45.704 238.588 45.32 239.164 45.32C239.484 45.32 240.156 45.704 241.18 46.472C242.204 47.176 242.78 47.752 242.908 48.2L248.476 71.624L250.396 79.88H251.452L258.94 51.272L252.604 50.6V45.992L264.316 45.32C264.636 45.32 265.18 45.768 265.948 46.664C266.716 47.56 267.1 48.232 267.1 48.68L254.908 88.328C249.532 89.48 246.62 90.056 246.172 90.056C245.98 90.056 245.564 89.8 244.924 89.288L239.356 68.168H238.78L233.212 88.328C227.836 89.48 224.924 90.056 224.476 90.056Z" fill="#5CDB95"/>
<g filter="url(#filter0_d_1_2)">
<path d="M86.049 72.3854L88.0416 73.9055L89.334 75.2793L91.4345 75.7182L94.4124 75.5521L98.1984 74.4511L101.215 72.874L104.162 70.967L106.371 70.3248L109.841 69.3155L113.312 68.3063L116.536 67.7186L119.198 67.6442L122.807 67.2946L125.962 66.3771L128.979 64.8L130.703 61.849L131.904 58.0004L131.39 53.9509L130.136 51.166L128.074 49.3161L125.451 47.9795L122.758 46.313L120.065 44.6466L117.549 42.2288L115.734 39.9572L113.78 37.0261L111.649 34.8464L108.572 32.9418L104.824 32.6318L101.669 33.5493L99.1455 34.2833L97.3909 35.4935L95.4591 37.455L94.2967 39.8926L93.2727 42.9899L92.8797 45.9036L92.2403 49.239L91.2855 52.666L89.8076 55.1954L87.7679 58.2381L86.2208 60.4377L84.8121 63.2969L84.3499 65.8808L85.0417 69.179L86.049 72.3854Z" stroke="#379683" stroke-width="5"/>
<path d="M119.152 32.4222L119.743 35.2428L120.618 37.8103L121.532 38.9554L123.151 40.2479L125.336 41.0229L128.196 40.1904L130.281 38.8778L132.226 36.9003L133.714 34.3502L134.567 31.9852L135.211 28.6226L135.111 26.5351L134.553 23.8751L133.996 21.215L132.485 18.8325L130.548 17.6325L128.433 17.19L126.209 17.8375L124.442 19.0575L122.497 21.0351L120.76 24.0101L119.977 26.7077L119.085 30.4952L119.152 32.4222Z" stroke="#379683" stroke-width="5"/>
<path d="M101.986 23.6112L102.723 25.5157L103.638 26.6619L105.26 27.9557L107.766 28.6389L110.838 28.8041L112.429 28.3411L114.058 26.4542L115.549 23.9015L116.333 21.2012L116.659 17.9278L116.419 15.1724L115.722 11.8439L114.667 10.032L112.836 7.73966L111.215 6.44581L108.779 6.09545L106.234 6.83623L104.783 7.96491L103.153 9.85188L101.981 12.3119L101.515 14.9197L101.118 17.8602L101.428 20.9484L101.986 23.6112Z" stroke="#379683" stroke-width="5"/>
<path d="M94.5183 32.1712L91.2262 34.1893L89.1766 34.0791L86.9177 32.9699L85.2953 31.6755L83.3938 29.049L81.9195 25.2382L81.012 20.9092L81.3388 17.6342L83.0086 14.3217L84.9577 12.3412L87.8924 11.8405L90.788 12.7644L93.5747 14.7799L95.9342 17.9798L96.9505 21.2172L97.509 23.8812L97.6793 26.3049L97.0733 28.2478L96.2189 30.6164L94.5183 32.1712Z" stroke="#379683" stroke-width="5"/>
<path d="M81.8805 52.8542L81.2449 53.0393L79.586 53.1693L78.1753 52.8742L77.0824 52.4866C76.7181 52.3574 75.9756 52.0325 75.9198 51.7664C75.8641 51.5003 75.168 51.3972 74.827 51.3788L73.5947 50.326L72.4321 49.6058L71.3783 47.7953L70.3244 45.9848L69.5578 42.3262L69.0002 39.6654L68.8998 37.5773L69.5745 35.9694L70.5671 34.2689L71.3115 32.9935L72.9006 32.5309L74.8076 31.9757L76.9237 32.4183L78.7219 32.9535L80.9774 34.0613L82.2793 35.4467L83.9688 37.0721L85.0227 38.8827L86.0765 40.6932L86.7038 43.6865L86.9826 45.0169L86.7651 47.1975L86.2298 49.4707L85.4854 50.7461L84.6713 51.6889L84.1053 52.2065L83.1518 52.4841L81.8805 52.8542Z" stroke="#379683" stroke-width="5"/>
</g>
</g>
<defs>
<filter id="filter0_d_1_2" x="65.4174" y="3.50022" width="73.2623" height="79.7774" filterUnits="userSpaceOnUse" color-interpolation-filters="sRGB">
<feFlood flood-opacity="0" result="BackgroundImageFix"/>
<feColorMatrix in="SourceAlpha" type="matrix" values="0 0 0 0 0 0 0 0 0 0 0 0 0 0 0 0 0 0 127 0" result="hardAlpha"/>
<feOffset dy="4"/>
<feGaussianBlur stdDeviation="0.5"/>
<feComposite in2="hardAlpha" operator="out"/>
<feColorMatrix type="matrix" values="0 0 0 0 0 0 0 0 0 0 0 0 0 0 0 0 0 0 0.25 0"/>
<feBlend mode="normal" in2="BackgroundImageFix" result="effect1_dropShadow_1_2"/>
<feBlend mode="normal" in="SourceGraphic" in2="effect1_dropShadow_1_2" result="shape"/>
</filter>
<clipPath id="clip0_1_2">
<rect width="294" height="135" fill="white"/>
</clipPath>
</defs>
</svg>
