<svg width="1831" height="148" viewBox="0 0 1831 148" fill="none" xmlns="http://www.w3.org/2000/svg">
<path fill-rule="evenodd" clip-rule="evenodd" d="M0 62.2896L1.43233 60.7946L2.38722 58.8013V56.3098L3.81956 59.2997L6.20678 58.8013L7.16167 56.8081L8.594 55.8114L9.54889 52.8215V50.33H10.9812L12.4136 49.8316L13.8459 47.8384H14.8008L16.2331 46.8418L17.188 44.8485L18.6203 43.8519H20.0527L21.0076 41.8586V40.3636V38.8687L21.9625 37.8721L22.9173 35.8788L23.3948 34.3838L24.8271 32.8889L26.7369 32.3906L27.6918 30.8956L29.1241 29.4007L29.6016 28.9024V27.4074L30.5565 25.4141L31.5113 23.9192V22.4242L31.9888 20.431L32.4662 17.9394L34.8535 16.4444L36.7632 12.9562L35.8083 17.9394L34.376 20.431L33.4211 23.9192L33.8986 25.9125L31.9888 27.4074L30.5565 30.3973L29.6016 34.3838V36.8754L28.1692 39.8653L26.2595 42.3569L23.3948 44.8485L21.485 47.3401L20.0527 50.33L19.0978 54.8148L17.188 58.8013C16.7106 60.1302 15.6602 62.8875 15.2782 63.2862C14.8963 63.6848 14.8008 66.4422 14.8008 67.771L11.9361 69.7643L8.594 71.7576L3.81956 76.2424L0.954889 80.229L0 82.2222V88.7003V99.6633V111.125V119.098V122.088L0.954889 121.589L1.90978 118.599L3.81956 119.098L5.25189 118.599L7.63911 117.603L9.54889 116.108L10.9812 115.609L12.4136 114.613V111.125L13.8459 109.63L15.7557 108.135L15.2782 105.145L13.8459 103.152V100.66H15.7557L17.188 98.6667L18.1429 98.1683L19.0978 94.6801L21.0076 93.1852H22.9173L24.8271 90.6936L26.2595 89.1987L25.782 87.2054L24.8271 85.2121L26.7369 83.7172L27.6918 81.2256L30.079 80.229L31.5113 79.7306L32.4662 77.7374L33.4211 77.2391L34.8535 75.2458L38.1956 75.7441L40.1053 74.2492L42.97 73.7508V70.7609L43.4475 67.771L42.4926 65.7778H41.0602L43.9249 63.7845L45.8347 61.2929L47.267 58.8013L50.1317 56.8081L52.0415 54.8148V52.8215L53.9512 50.33L54.9061 49.8316L55.861 47.3401L57.7708 44.8485L59.6806 43.3535L61.5904 42.3569L63.0227 39.8653V38.3704V35.8788L64.455 35.3805L65.8874 34.3838L64.455 30.8956L65.4099 28.9024L68.2746 25.9125L69.2295 24.4175L71.1392 22.4242L72.0941 19.4343L72.5716 16.4444L74.4814 14.9495V12.9562L75.4362 10.4646L76.3911 8.47138L77.346 4.98316V12.4579L76.3911 14.9495L75.4362 18.4377V20.9293L74.0039 25.4141L72.5716 30.3973L69.7069 32.8889L67.3197 35.3805C66.8422 36.7093 65.9828 39.4667 66.3648 39.8653C66.7468 40.264 66.2056 43.3535 65.8874 44.8485L61.5904 52.3232L58.2482 56.8081C57.7708 58.1369 56.9114 60.8943 57.2934 61.2929C57.6753 61.6916 56.4976 62.7879 55.861 63.2862L52.0415 65.7778V69.266L50.1317 73.7508L49.1768 76.7407L46.7896 78.2357L43.9249 79.7306L42.97 80.229L42.0151 84.7138L41.0602 87.2054L40.1053 89.1987L37.7181 90.6936L34.8535 95.1785L34.376 100.66L31.0339 103.152L30.079 106.141L27.6918 109.63L23.3948 112.121L21.0076 113.616L18.1429 114.114L15.2782 117.603V121.091L12.4136 125.077L7.63911 128.566H4.77445L3.34211 131.556L0.954889 133.051H0V141.024V148H25.3046L26.7369 146.505L27.6918 145.508L30.079 145.01H30.5565L30.079 143.515L31.5113 142.02V138.532L32.4662 136.539L32.9437 134.545L34.8535 133.051L37.7181 130.559L39.6279 129.064L41.0602 127.569L40.5828 125.077L41.5377 122.586L42.97 123.582L43.4475 122.088L44.4023 120.593L45.3572 119.596L46.3121 118.101L48.2219 115.609L50.1317 115.111L51.564 114.613V112.62L53.9512 113.118L55.3836 112.62L57.7708 111.623L58.2482 108.633L58.7257 104.148L59.2031 101.657L61.5904 102.653L62.5452 102.155L63.5001 96.6734V94.1818L64.9325 91.1919L66.3648 90.1953L70.1844 86.2088H70.6618H71.6167V84.7138L73.5265 83.2189L75.4362 82.2222L76.3911 81.2256V78.734L77.346 76.2424L78.7784 74.2492L80.6881 71.7576H82.1205L84.0302 69.266L85.4626 67.771L86.4175 66.2761L86.8949 64.2828L87.3724 61.7912V60.2963L88.8047 59.798V58.303L90.237 55.8114L91.1919 54.3165L92.6243 52.3232L95.0115 50.8283L96.4438 47.8384L97.3987 44.3502L98.3536 41.8586L99.3085 39.367L100.741 36.8754L101.218 34.8822V31.8923L100.741 29.899L102.173 28.404L104.56 26.4108L105.993 24.4175V22.4242V20.9293L106.948 19.4343L107.902 16.4444L108.857 13.9529L109.812 12.4579V15.4478L108.857 17.4411L107.902 20.431V22.9226L108.38 25.9125L106.948 27.9057L105.515 32.3906L105.038 35.8788L103.605 37.8721L102.173 40.862V45.3468L100.263 47.3401L100.741 52.3232L99.7859 54.8148L98.831 57.3064L97.8761 58.8013C97.717 59.1336 97.3032 59.8976 96.9213 60.2963C96.5393 60.6949 95.1706 62.4557 94.534 63.2862C94.2157 63.7845 93.5791 64.8808 93.5791 65.2795V68.2694L94.534 70.2626L92.1468 71.7576L90.237 73.7508L88.3272 74.2492L86.4175 76.7407L84.5077 78.734L84.9851 80.7273V83.2189L84.0302 84.2155L82.5979 86.2088L81.1656 88.7003L80.6881 90.6936L80.2107 93.1852L79.2558 94.6801L77.8235 97.67L78.3009 99.165L77.346 103.152V105.643L76.8686 106.141L75.4362 106.64H72.5716L72.0941 108.633L71.6167 111.125V112.62L70.6618 113.118L68.752 113.616L68.2746 114.613L66.3648 115.609L64.9325 116.108L64.455 119.098L63.0227 120.094L63.5001 121.589V123.084L59.2031 125.077H58.2482L57.2934 124.579L56.3385 126.572L55.3836 127.569L55.861 129.064H54.4287C53.4738 129.23 51.564 129.662 51.564 130.061C51.564 130.459 50.6091 131.888 50.1317 132.552L48.6993 133.549C48.3811 133.715 47.7445 134.147 47.7445 134.545C47.7445 134.944 48.6993 136.04 49.1768 136.539L48.2219 137.535C47.4262 137.868 45.8347 138.632 45.8347 139.03C45.8347 139.429 44.5615 140.193 43.9249 140.525L42.97 142.02L42.0151 143.017L39.6279 144.013L41.0602 145.01H39.1505H36.2858L35.3309 146.007L34.376 148H42.4926H51.0866H62.5452H71.6167L73.049 147.502L74.0039 146.505L74.4814 144.512V143.017L75.9137 142.519L78.3009 141.522L80.6881 140.525L81.643 139.529L82.1205 137.037L83.0754 135.542L84.0302 134.545L83.5528 132.054L85.4626 130.061L86.4175 128.566L86.8949 126.074H88.8047L91.1919 125.077L92.6243 123.084L94.534 122.088L95.9664 121.589L96.4438 119.098L96.9213 117.104L98.831 116.108L98.3536 115.609L96.9213 115.111L97.3987 112.62V110.128L98.3536 109.131L100.741 107.138L103.128 106.141L104.083 105.643L105.038 103.152L107.425 100.162L109.812 98.6667L111.245 95.6768L111.722 93.6835V92.6869L111.245 91.6902L112.677 89.697L112.199 87.7037L113.632 85.7104L115.064 85.2121L117.451 83.2189V81.7239L118.884 80.7273L120.793 77.2391L121.748 74.2492V71.7576L121.271 69.266L122.703 68.2694L124.613 65.7778L126.045 64.7811L127.478 63.2862V60.2963L127.955 58.303L129.865 56.8081L130.342 53.8182L130.82 49.8316L131.297 48.3367L131.775 51.3266V53.8182L131.297 56.3098L130.82 57.8047L129.865 59.798V63.2862L129.387 64.7811L128.433 66.2761L127 67.2727C126.682 67.4388 126.045 67.8707 126.045 68.2694C126.045 68.668 125.727 69.4321 125.568 69.7643L124.613 72.2559V74.7475L124.136 77.7374L123.658 79.7306L122.703 81.2256C122.544 81.5578 122.226 82.3219 122.226 82.7205C122.226 83.1192 121.271 84.5477 120.793 85.2121L118.884 87.7037L117.451 89.697L116.974 91.6902L116.019 95.1785L115.542 98.6667L115.064 100.66V103.152V106.141L113.632 108.135L112.199 110.128H109.812L108.857 113.118L107.902 114.114L105.993 114.613L104.083 116.108L102.651 116.606L101.218 119.596L102.173 122.088L100.741 124.579C100.104 125.244 98.831 126.672 98.831 127.071C98.831 127.469 96.9213 128.566 95.9664 129.064L93.5791 132.054L92.6243 134.047L91.6694 137.037L92.6243 138.532L91.1919 139.529L88.3272 141.024L85.94 142.519L84.9851 145.01H83.0754L81.643 146.007L80.6881 147.502L83.0754 148H91.1919H95.0115H160.899H236.813H277.395H421.106H610.174H800.197H964.916V143.017L958.709 135.044V129.562L955.367 127.071V118.599V109.63L952.979 100.66L950.592 97.1717H948.682L950.592 91.6902L948.205 72.2559V67.771L946.773 60.7946L949.637 67.2727L951.07 72.2559L952.979 78.734L955.367 86.2088L959.664 94.6801L963.006 100.66L965.87 106.64L968.735 109.131H971.122V112.121V115.111L973.032 118.599L975.419 122.586L976.852 123.582L974.464 127.071L972.077 129.064C972.714 129.23 974.082 129.662 974.464 130.061C974.846 130.459 975.897 131.223 976.374 131.556L981.149 134.545L984.491 137.535L985.446 140.027L984.013 143.515L983.058 147.003L985.446 148H999.292H1015.52L1016 146.007L1014.57 142.02L1012.66 137.535L1009.32 133.051L1007.41 131.057V126.572L1009.32 124.579L1011.71 122.586L1012.18 118.599L1010.75 115.609L1008.36 115.111L1011.71 112.121V106.64L1010.27 101.657L1006.93 96.6734L1004.07 94.1818L1005.5 91.1919L1009.32 87.7037L1011.23 84.2155L1012.18 81.7239L1011.71 77.7374H1008.84L1010.27 74.7475L1011.71 72.7542L1012.66 70.7609V66.2761V58.303L1011.23 53.8182L1014.09 59.798L1014.57 64.7811L1017.43 73.2525L1020.78 84.7138L1022.69 89.697L1024.12 92.1886H1026.51L1024.12 96.6734L1023.16 102.653V106.141L1026.51 107.636L1024.12 109.63L1022.69 110.128L1024.6 112.121L1026.03 114.613L1027.94 116.606L1027.46 124.579L1026.98 128.067L1025.07 130.061L1024.12 132.054L1025.55 135.542L1028.42 138.532L1030.8 139.529L1033.67 140.525L1031.76 142.02L1029.37 143.017L1026.51 144.512L1028.89 148H1058.02L1058.97 144.512L1056.58 142.02L1057.06 138.532L1058.97 134.545L1062.79 130.061L1067.57 128.067L1069.48 126.572L1066.13 122.586L1063.75 120.593L1067.09 117.603L1069.48 114.114L1070.91 112.121L1069.48 108.633L1069 107.138L1071.86 104.646L1073.77 102.653L1076.64 98.1683L1078.55 94.1818L1079.98 90.1953L1080.93 85.7104L1082.84 82.2222L1084.75 76.7407L1085.71 70.7609L1087.62 65.7778L1090.01 60.2963L1089.53 65.2795L1087.62 71.2593V78.734V87.2054L1088.1 90.6936L1084.75 94.6801L1084.28 97.67L1083.8 102.653V107.636V112.62V121.589L1081.41 123.084V127.569L1079.98 131.057L1077.11 134.545L1074.25 138.034V142.02L1072.34 145.01L1073.3 148H1084.75H1145.39H1213.19H1266.66H1275.25L1277.64 141.522L1282.89 138.532V129.064L1292.44 121.091H1296.74V112.121L1303.42 104.148L1309.15 100.162L1317.27 96.6734L1321.09 91.6902L1322.52 84.7138L1329.21 86.2088L1336.37 84.7138L1342.1 80.229L1346.39 75.7441L1354.03 74.7475L1362.15 69.7643L1365.01 66.7744L1362.15 55.8114L1365.01 51.3266L1371.22 47.3401L1375.04 43.3535L1373.13 34.8822L1369.79 28.404L1365.01 22.4242L1369.79 16.9428H1375.04L1380.29 10.4646H1385.07V4.48485L1386.02 0H0V62.2896ZM1498.22 148H1625.7L1628.09 141.024L1629.04 133.549L1635.25 125.077L1637.63 117.603L1642.41 110.626L1652.44 109.131L1657.69 101.158L1661.03 97.67H1668.19L1674.4 91.1919L1676.31 81.7239L1679.17 75.2458L1682.04 74.2492L1679.17 65.7778V52.8215L1682.04 46.3434L1687.29 44.3502L1694.45 37.3737L1704.48 34.3838L1705.91 27.9057L1711.64 15.9461L1720.71 9.96633L1724.53 3.48822L1729.78 0H1607.56V12.9562L1606.12 22.9226L1601.83 35.8788L1591.8 37.3737L1587.98 41.3603L1585.59 48.835L1584.64 60.2963H1578.91L1573.66 66.7744L1565.54 69.7643L1557.42 74.7475L1556.47 84.2155H1552.65V91.6902V101.657L1547.88 105.145H1536.89L1529.73 109.131L1523.05 114.114V119.596L1514.45 124.579L1507.29 130.559L1502.04 135.542L1498.22 141.522L1500.13 143.017L1498.22 148ZM1659.12 148H1831V0H1746.97V22.9226L1749.83 25.4141L1746.01 28.9024L1745.06 37.3737L1746.01 41.3603L1739.33 46.3434L1735.51 51.3266H1727.39L1720.71 63.2862L1717.85 69.266H1709.25L1704.48 74.2492L1696.36 81.7239L1697.32 92.6869L1692.06 109.131L1676.31 122.586L1668.19 125.077L1662.94 134.545L1663.89 142.519L1659.12 148ZM1442.36 139.529L1436.63 142.02V148H1287.67L1290.53 144.512L1296.74 142.519L1301.99 141.522L1305.81 137.037H1311.06L1318.7 135.044L1324.43 134.047L1329.68 132.054V125.077L1331.59 121.091L1337.8 119.596L1345.92 117.603L1353.56 114.114L1358.33 109.131L1365.01 105.643L1368.36 98.1683L1373.61 93.1852L1371.22 84.7138V80.229L1378.38 74.7475L1383.16 68.7677L1387.93 64.7811H1395.57L1399.39 61.7912L1402.73 57.8047H1406.55L1417.06 50.33L1424.22 40.3636L1431.86 34.8822L1429.47 23.9192L1431.86 22.4242L1441.88 14.9495L1446.18 8.9697L1448.57 2.49158V0H1553.6V3.48822L1550.74 11.9596L1549.79 21.4276L1541.19 22.9226L1535.46 19.4343V30.8956V44.3502L1532.12 56.3098L1525.91 61.2929L1517.8 63.2862L1508.72 58.8013V66.7744L1505.38 69.7643L1500.61 71.7576L1492.97 74.7475L1485.81 82.2222V88.7003L1481.03 89.697L1476.26 98.1683L1470.53 99.6633L1466.71 109.131V119.596L1464.32 124.579L1458.12 127.569L1452.86 130.559L1448.09 137.535L1442.36 139.529Z" fill="white"/>
</svg>
