<svg width="85" height="116" viewBox="0 0 85 116" fill="none" xmlns="http://www.w3.org/2000/svg">
<path fill-rule="evenodd" clip-rule="evenodd" d="M47 54.5L46 50L44.5 45L43 40.5L40 34.5L35 28.5L32 24.5L30 24H28L26.5 22V20V19H28L29.5 20.5H32.5L35 19.5L38.5 19L33.5 16.5L32.5 14.5V12.5L34 14L35 15.5L36 16.5H39.5V20V22.5L38.5 24.5L41.5 22L43.5 18.5L44 16V12L42.5 8L40.5 6V4L38.5 2L36.5 1L32.5 0.5L29.5 0H24L19.5 1L16 4L12.5 8L10.5 12L8.5 15L7 19L5.5 24L4.5 26.5L4 27.5H1L0 30.5V38L0.5 41L2 47L4.5 51.5L7.5 54.5L11 57H12V55.5L15 58.5L17.5 61.5L20.5 66V68L17 70.5L13.5 73.5L11 77V80L12.5 82H13.5V78.5L14.5 76.5H15.5V75.5H20.5V77L18.5 79.5V82L20 85L21 85.5H24L21.5 83.5V80L23.5 77.5H26.5L27 79.5V80.5L26 82.5H28L29 80.5V79V78H30L32 80L32.5 81V83L34 82V79.5L31.5 76.5L28.5 74H26V73V72L31.5 71.5L34 70.5L37 74.5L40.5 79L44.5 85L47.5 90.5L50.5 97L53.5 105.5L55 112L55.5 115.5H59L58 104.5L56 97L62 107.5L57.5 95L53 85L57.5 89L62 92.5L70 98L75.5 100L79 101L64.5 91.5L59.5 86.5L64.5 88.5L68 91.5L75 94L85 94.5L76 92.5L68.5 90L64.5 86.5L70 88.5L59 80L53.5 74L48.5 68V60L47 54.5ZM28 66.5V67L25 69V64L28 66.5Z" fill="#EDF5E1"/>
</svg>
