<svg width="60" height="121" viewBox="0 0 60 121" fill="none" xmlns="http://www.w3.org/2000/svg">
<path d="M4 73L4.5 70.5L2.5 66.5L1.5 62V56.5L2 52L3 47.5L4.5 43.5L6.5 39L8.5 35.5V32.5L9 29.5L9.5 25.5V22L9 20L8.5 16.5L8 13.5L9 11.5L7.5 10.5V11.5L7 13.5L6 16.5L5 18.5L3 20V18.5L2.5 17L2 15L1 13L0 11.5V10L1 7.5L3 5.5L6 3.5L9.5 2L11.5 1L13 0.5L14.5 1L15.5 0.5H21.5L25.5 1.5L27 2.5L27.5 2H29.5L31 2.5L35 5L38 8L40 10.5V13L39 14.5L38 16.5L36.5 20.5L34.5 22.5H33L32.5 20.5L32 19.5V18L31.5 15.5L30.5 14V15V19V22.5L30 25.5L30.5 29V31.5L32.5 35L34 38L35 43.5L35.5 44L37 46.5L42 52L46 56.5L50.5 63.5L53 70L55 77L56.5 82L58 87.5L59 94L59.5 101.5L58.5 107L57.5 111V112L59 113.5V115.5L58 116.5H56.5L53 117L48.5 117.5H45L42 118.5H40.5H37.5L37 118H35.5H35L34 117L33 117.5L32.5 117L32 116.5L32.5 115L30.5 115.5L27 116H23.5L21 115.5L20.5 117L19 120L17.5 120.5H16L15.5 120L14.5 120.5H13.5L12 121H10L9.5 120L9 120.5H8L7.5 118.5L8.5 117L10 115L12.5 113L15 110.5L16 109L17 106L18.5 102L20 98L19 95.5V92.5L19.5 89V86.5L16.5 83L13.5 79.5L12 77.5V78L10.5 82L8.5 87V88L11.5 93.5L12.5 96L13.5 100.5L15.5 104V106L14.5 107L14 109L12.5 110H11.5L11 111H10.5L9.5 110.5H9L8 109.5L7.5 107.5L7 105.5L6 102.5L4.5 99V96L3.5 93.5L2.5 90.5V87L3.5 82.5V75.5L4 73Z" fill="#5CDB95"/>
</svg>
