<svg width="144" height="128" viewBox="0 0 144 128" fill="none" xmlns="http://www.w3.org/2000/svg">
<path d="M74.5 119V113H91.5V78.1862H97.5V117L96 119H74.5Z" fill="#EDF5E1"/>
<path d="M74.5 16V10H95L96.5 11L97.5 12.5V45.5H91.5V16H74.5Z" fill="#EDF5E1"/>
<path fill-rule="evenodd" clip-rule="evenodd" d="M19 111.5V13L19.5 12L21 10.5L22.5 10L68.5 6L70 7.5L71 9V120L70 121.5L68.5 122.5L21.5 115L20 114L19 113V111.5ZM56 62.5V66.5L56.5 68.5L57.5 69.5L59 70.5H60.5L62 69L63 67V62L62.5 61L62 60L60.5 58.5H58.5L57.5 59.5L56.5 61L56 62.5Z" fill="#EDF5E1"/>
<path d="M56 66.5V62.5L56.5 61L57.5 59.5L58.5 58.5H60.5L62 60L62.5 61L63 62V67L62 69L60.5 70.5H59L57.5 69.5L56.5 68.5L56 66.5Z" fill="#5CDB95"/>
<path d="M74.5 74V50H101V37L135 62L101 87.5V74.5H74.5V74Z" fill="#5CDB95"/>
</svg>
