<svg width="1920" height="151" viewBox="0 0 1920 151" fill="none" xmlns="http://www.w3.org/2000/svg">
<path fill-rule="evenodd" clip-rule="evenodd" d="M1 64L2.5 62.5L3.5 60.5V58L5 61L7.5 60.5L8.5 58.5L10 57.5L11 54.5V52H12.5L14 51.5L15.5 49.5H16.5L18 48.5L19 46.5L20.5 45.5H22L23 43.5V42V40.5L24 39.5L25 37.5L25.5 36L27 34.5L29 34L30 32.5L31.5 31L32 30.5V29L33 27L34 25.5V24L34.5 22L35 19.5L37.5 18L39.5 14.5L38.5 19.5L37 22L36 25.5L36.5 27.5L34.5 29L33 32L32 36V38.5L30.5 41.5L28.5 44L25.5 46.5L23.5 49L22 52L21 56.5L19 60.5C18.5 61.8333 17.4 64.6 17 65C16.6 65.4 16.5 68.1667 16.5 69.5L13.5 71.5L10 73.5L5 78L2 82L1 84V90.5V101.5V113V121V124L2 123.5L3 120.5L5 121L6.5 120.5L9 119.5L11 118L12.5 117.5L14 116.5V113L15.5 111.5L17.5 110L17 107L15.5 105V102.5H17.5L19 100.5L20 100L21 96.5L23 95H25L27 92.5L28.5 91L28 89L27 87L29 85.5L30 83L32.5 82L34 81.5L35 79.5L36 79L37.5 77L41 77.5L43 76L46 75.5V72.5L46.5 69.5L45.5 67.5H44L47 65.5L49 63L50.5 60.5L53.5 58.5L55.5 56.5V54.5L57.5 52L58.5 51.5L59.5 49L61.5 46.5L63.5 45L65.5 44L67 41.5V40V37.5L68.5 37L70 36L68.5 32.5L69.5 30.5L72.5 27.5L73.5 26L75.5 24L76.5 21L77 18L79 16.5V14.5L80 12L81 10L82 6.5V14L81 16.5L80 20V22.5L78.5 27L77 32L74 34.5L71.5 37C71 38.3333 70.1 41.1 70.5 41.5C70.9 41.9 70.3333 45 70 46.5L65.5 54L62 58.5C61.5 59.8333 60.6 62.6 61 63C61.4 63.4 60.1667 64.5 59.5 65L55.5 67.5V71L53.5 75.5L52.5 78.5L50 80L47 81.5L46 82L45 86.5L44 89L43 91L40.5 92.5L37.5 97L37 102.5L33.5 105L32.5 108L30 111.5L25.5 114L23 115.5L20 116L17 119.5V123L14 127L9 130.5H6L4.5 133.5L2 135H1V143V150H27.5L29 148.5L30 147.5L32.5 147H33L32.5 145.5L34 144V140.5L35 138.5L35.5 136.5L37.5 135L40.5 132.5L42.5 131L44 129.5L43.5 127L44.5 124.5L46 125.5L46.5 124L47.5 122.5L48.5 121.5L49.5 120L51.5 117.5L53.5 117L55 116.5V114.5L57.5 115L59 114.5L61.5 113.5L62 110.5L62.5 106L63 103.5L65.5 104.5L66.5 104L67.5 98.5V96L69 93L70.5 92L74.5 88H75H76V86.5L78 85L80 84L81 83V80.5L82 78L83.5 76L85.5 73.5H87L89 71L90.5 69.5L91.5 68L92 66L92.5 63.5V62L94 61.5V60L95.5 57.5L96.5 56L98 54L100.5 52.5L102 49.5L103 46L104 43.5L105 41L106.5 38.5L107 36.5V33.5L106.5 31.5L108 30L110.5 28L112 26V24V22.5L113 21L114 18L115 15.5L116 14V17L115 19L114 22V24.5L114.5 27.5L113 29.5L111.5 34L111 37.5L109.5 39.5L108 42.5V47L106 49L106.5 54L105.5 56.5L104.5 59L103.5 60.5C103.333 60.8333 102.9 61.6 102.5 62C102.1 62.4 100.667 64.1667 100 65C99.6667 65.5 99 66.6 99 67V70L100 72L97.5 73.5L95.5 75.5L93.5 76L91.5 78.5L89.5 80.5L90 82.5V85L89 86L87.5 88L86 90.5L85.5 92.5L85 95L84 96.5L82.5 99.5L83 101L82 105V107.5L81.5 108L80 108.5H77L76.5 110.5L76 113V114.5L75 115L73 115.5L72.5 116.5L70.5 117.5L69 118L68.5 121L67 122L67.5 123.5V125L63 127H62L61 126.5L60 128.5L59 129.5L59.5 131H58C57 131.167 55 131.6 55 132C55 132.4 54 133.833 53.5 134.5L52 135.5C51.6667 135.667 51 136.1 51 136.5C51 136.9 52 138 52.5 138.5L51.5 139.5C50.6667 139.833 49 140.6 49 141C49 141.4 47.6667 142.167 47 142.5L46 144L45 145L42.5 146L44 147H42H39L38 148L37 150H45.5H54.5H66.5H76L77.5 149.5L78.5 148.5L79 146.5V145L80.5 144.5L83 143.5L85.5 142.5L86.5 141.5L87 139L88 137.5L89 136.5L88.5 134L90.5 132L91.5 130.5L92 128H94L96.5 127L98 125L100 124L101.5 123.5L102 121L102.5 119L104.5 118L104 117.5L102.5 117L103 114.5V112L104 111L106.5 109L109 108L110 107.5L111 105L113.5 102L116 100.5L117.5 97.5L118 95.5V94.5L117.5 93.5L119 91.5L118.5 89.5L120 87.5L121.5 87L124 85V83.5L125.5 82.5L127.5 79L128.5 76V73.5L128 71L129.5 70L131.5 67.5L133 66.5L134.5 65V62L135 60L137 58.5L137.5 55.5L138 51.5L138.5 50L139 53V55.5L138.5 58L138 59.5L137 61.5V65L136.5 66.5L135.5 68L134 69C133.667 69.1667 133 69.6 133 70C133 70.4 132.667 71.1667 132.5 71.5L131.5 74V76.5L131 79.5L130.5 81.5L129.5 83C129.333 83.3333 129 84.1 129 84.5C129 84.9 128 86.3333 127.5 87L125.5 89.5L124 91.5L123.5 93.5L122.5 97L122 100.5L121.5 102.5V105V108L120 110L118.5 112H116L115 115L114 116L112 116.5L110 118L108.5 118.5L107 121.5L108 124L106.5 126.5C105.833 127.167 104.5 128.6 104.5 129C104.5 129.4 102.5 130.5 101.5 131L99 134L98 136L97 139L98 140.5L96.5 141.5L93.5 143L91 144.5L90 147H88L86.5 148L85.5 149.5L88 150H96.5H100.5H169.5H249H291.5H442H640H839H1011.5V145L1005 137V131.5L1001.5 129V120.5V111.5L999 102.5L996.5 99H994.5L996.5 93.5L994 74V69.5L992.5 62.5L995.5 69L997 74L999 80.5L1001.5 88L1006 96.5L1009.5 102.5L1012.5 108.5L1015.5 111H1018V114V117L1020 120.5L1022.5 124.5L1024 125.5L1021.5 129L1019 131C1019.67 131.167 1021.1 131.6 1021.5 132C1021.9 132.4 1023 133.167 1023.5 133.5L1028.5 136.5L1032 139.5L1033 142L1031.5 145.5L1030.5 149L1033 150H1047.5H1064.5L1065 148L1063.5 144L1061.5 139.5L1058 135L1056 133V128.5L1058 126.5L1060.5 124.5L1061 120.5L1059.5 117.5L1057 117L1060.5 114V108.5L1059 103.5L1055.5 98.5L1052.5 96L1054 93L1058 89.5L1060 86L1061 83.5L1060.5 79.5H1057.5L1059 76.5L1060.5 74.5L1061.5 72.5V68V60L1060 55.5L1063 61.5L1063.5 66.5L1066.5 75L1070 86.5L1072 91.5L1073.5 94H1076L1073.5 98.5L1072.5 104.5V108L1076 109.5L1073.5 111.5L1072 112L1074 114L1075.5 116.5L1077.5 118.5L1077 126.5L1076.5 130L1074.5 132L1073.5 134L1075 137.5L1078 140.5L1080.5 141.5L1083.5 142.5L1081.5 144L1079 145L1076 146.5L1078.5 150H1109L1110 146.5L1107.5 144L1108 140.5L1110 136.5L1114 132L1119 130L1121 128.5L1117.5 124.5L1115 122.5L1118.5 119.5L1121 116L1122.5 114L1121 110.5L1120.5 109L1123.5 106.5L1125.5 104.5L1128.5 100L1130.5 96L1132 92L1133 87.5L1135 84L1137 78.5L1138 72.5L1140 67.5L1142.5 62L1142 67L1140 73V80.5V89L1140.5 92.5L1137 96.5L1136.5 99.5L1136 104.5V109.5V114.5V123.5L1133.5 125V129.5L1132 133L1129 136.5L1126 140V144L1124 147L1125 150H1137H1200.5H1271.5H1327.5H1336.5L1339 143.5L1344.5 140.5V131L1354.5 123H1359V114L1366 106L1372 102L1380.5 98.5L1384.5 93.5L1386 86.5L1393 88L1400.5 86.5L1406.5 82L1411 77.5L1419 76.5L1427.5 71.5L1430.5 68.5L1427.5 57.5L1430.5 53L1437 49L1441 45L1439 36.5L1435.5 30L1430.5 24L1435.5 18.5H1441L1446.5 12H1451.5V6L1452.5 1.5H1V64ZM1570 150H1703.5L1706 143L1707 135.5L1713.5 127L1716 119.5L1721 112.5L1731.5 111L1737 103L1740.5 99.5H1748L1754.5 93L1756.5 83.5L1759.5 77L1762.5 76L1759.5 67.5V54.5L1762.5 48L1768 46L1775.5 39L1786 36L1787.5 29.5L1793.5 17.5L1803 11.5L1807 5L1812.5 1.5H1684.5V14.5L1683 24.5L1678.5 37.5L1668 39L1664 43L1661.5 50.5L1660.5 62H1654.5L1649 68.5L1640.5 71.5L1632 76.5L1631 86H1627V93.5V103.5L1622 107H1610.5L1603 111L1596 116V121.5L1587 126.5L1579.5 132.5L1574 137.5L1570 143.5L1572 145L1570 150ZM1738.5 150H1918.5V1.5H1830.5V24.5L1833.5 27L1829.5 30.5L1828.5 39L1829.5 43L1822.5 48L1818.5 53H1810L1803 65L1800 71H1791L1786 76L1777.5 83.5L1778.5 94.5L1773 111L1756.5 124.5L1748 127L1742.5 136.5L1743.5 144.5L1738.5 150ZM1511.5 141.5L1505.5 144V150H1349.5L1352.5 146.5L1359 144.5L1364.5 143.5L1368.5 139H1374L1382 137L1388 136L1393.5 134V127L1395.5 123L1402 121.5L1410.5 119.5L1418.5 116L1423.5 111L1430.5 107.5L1434 100L1439.5 95L1437 86.5V82L1444.5 76.5L1449.5 70.5L1454.5 66.5H1462.5L1466.5 63.5L1470 59.5H1474L1485 52L1492.5 42L1500.5 36.5L1498 25.5L1500.5 24L1511 16.5L1515.5 10.5L1518 4V1.5H1628V5L1625 13.5L1624 23L1615 24.5L1609 21V32.5V46L1605.5 58L1599 63L1590.5 65L1581 60.5V68.5L1577.5 71.5L1572.5 73.5L1564.5 76.5L1557 84V90.5L1552 91.5L1547 100L1541 101.5L1537 111V121.5L1534.5 126.5L1528 129.5L1522.5 132.5L1517.5 139.5L1511.5 141.5Z" fill="black" fill-opacity="0.22"/>
</svg>
