<svg width="1728" height="130" viewBox="0 0 1728 130" fill="none" xmlns="http://www.w3.org/2000/svg">
<rect width="1728" height="130" fill="#1E1E1E"/>
<rect width="1728" height="130" fill="#05386B"/>
<path d="M28.5 124L27 125L30 124L31.5 122L33 121L33.5 120L34.5 119.5L37 118L38 116L39 115.5L41 114H42L43.5 111.5L45 109.5V108L47 107.5L49 106L50.5 104.5L51.5 102V100L53.5 98V95.5L54.5 94L56 92.5L57.5 90L59 89.5L60 88.5V86.5L60.5 85L62 83L63 80.5L64 79L64.5 75.5L65 73L63 74.5V76L62.5 77L62 78.5L61.5 79.5V81.5H60.5L59.5 83L58 83.5L57.5 84.5L57 85.5V86.5L55.5 87.5L56 89L54.5 90.5L53.5 91L52 93L50.5 94H49L48 95.5L49 97L47 98L46.5 99H45.5L43.5 100.5L41.5 102L42.5 103.5V105V107L41.5 108L41 109.5L40 110L39 111L38 113L36.5 113.5H36L35.5 114.5L34.5 116L34 117L32.5 118L31.5 119V121L30 122.5L28.5 124Z" fill="#8EE4AF"/>
<path d="M52 129L51 130H60L62 128V126.5L62.5 125.5L65 123L64.5 122L65.5 120.5L67.5 117.5L69 116V113L70.5 112.5L72 111.5L73.7412 109.5L75.5 106L75 104.5L76 103L78 101.5V98.5L79.5 96L81 94.5L83 91L84 89.5V87.5L84.5 84.5L86 84L87 82.5L88.5 79L89 76.5L90 74.5L90.5 73L91.5 70.5L91 66.5L90.5 68.5L89.5 70.5V72L89 73L88 76.5L86 78.5L83.5 82L84 83.5L83.5 84.5L82.5 85L82 86.5L82.5 87.5L81 89.5L79.5 91L78 92.5L77 94L75.5 95.5V96.5L74.5 98L72 99.5L70.5 102.5L69.5 104L70 105.5L69.5 108L67.5 108.5L67 109.5H64.5L64 110.5H63L62.5 112L59.5 113L58.5 115.5L59.5 117L59 118L57.5 119.5L56.5 120L55 121L54 123L53.5 123.5L52.5 124.5L51.5 125L51 126L52.5 127.5L52 129Z" fill="#8EE4AF"/>
<path d="M79.5 126.5V130H88L88.5 129L89 128L91 127.5L91.5 125L92 122L93.5 118.5V117L96 113.5L96.5 111L98 108H99.5L102 106L101 105L101.5 103.5L102.5 102L103.5 101.5V100.5L104.5 99L105 97.5L106 95V93L107 91.5V90.5V88L108 86V85L109 83.5V82.5L110 80.5L111.5 79L110.5 78.5V78L111 76L111.5 73.5V71L111 72L110 75.5L109 77V79.5L106.5 81V82V84.5L106 86.5L105 88V89L104 90.5V91.5L103 93L102 95L100.5 95.5L99.5 97L98.5 98.5L98 100L97 101V104L96.5 105L95 105.5L94 107L92 108.5L91.5 110L90.5 111V112.5L87.5 115V116H86.5L84.5 117.5L83.5 118.5L82.5 120V124L82 125.5H80L79.5 126.5Z" fill="#8EE4AF"/>
<path d="M105.5 129L103.5 130H110H114L115.5 128.5V128V125.5V122L116 121L116.5 118.5L118 116L118.5 115.5L119.5 113.5L120 112.5L120.5 111L121 110V108.5V107L122 105L123 104.5L124 103L124.5 101.5V99.5L125 98.5L125.5 96.5V95V93.5L125 93L124.5 94L124 97L123 99V100.5L122.5 102L121.5 102.5L119.5 105V106V108.5L118.5 109V110.5L117.5 112L116 113V114L114.5 115.5L113 116.5V118.5L112.5 119V121L112 122L110 124L108.5 125.5V127.5H107.5L105.5 129Z" fill="#8EE4AF"/>
<path d="M414.5 2.5L413.5 0.5V0H428V1H429V4L430 4.5V9L433.5 14H434.5H440V14.5L438.5 16L435.5 18.5L434 21L437 24.5L440.5 28V30.5L439.5 31.5V36.5L440.5 39.5L443 44L445 49.5L443 47.5L439.5 43L435 38.5L432.5 36L431.5 33.5L430.5 31L428 26.5L426.5 23L424 18.5L422.5 16.5L421 14.5L419.5 12.5L418.5 10.5L417.5 9H413.5L414.5 8V5.5V2.5Z" fill="#8EE4AF"/>
<path d="M463 36L461.5 40.5L461 33.5L460 32V24.5L459 15.5L458.5 15V11L457.5 10.5V8L456.5 6L455 5.5V4.5L456.5 3.5V0H467L468 1L470 2.5V6L469 7.5L468.5 15.5L467 18.5L466 24L464.5 26.5L464 31.5L463 36Z" fill="#8EE4AF"/>
<path d="M490.5 4L491.5 0H504.5L505 4.5H501V6L497 13.5L493 21L490.5 28L487.5 33.5L483 39.5L480 44.5L477 47.5L479 44L480 39.5L481.5 37V27L483 25.5L485 21L486.5 19L482 14.5V13.5H486.5L489 10.5L490.5 7.5V4Z" fill="#8EE4AF"/>
<path d="M1223 58.5L1222 50.5L1225 55.5L1229.5 58.5L1232.5 62L1236 60L1236.5 61L1235 63.5V65L1237 65.5L1238.5 67V68.5L1239.5 69.5V75L1241 77V79.5L1243 82L1245 84L1246 86L1247.5 88L1250.5 91.5L1251.5 93.5L1252 95L1254.5 98L1256.5 102L1260.5 105.5L1264.5 110.5L1268 116L1270.5 119V121L1272.5 125L1275.5 130H1274L1272.5 128.5L1269.5 126.5L1268 124.5V122.5L1265.5 118.5L1261.5 114.5L1257 111.5L1256 107L1253.5 106.5L1252 105L1250 104L1249.5 101.5L1245.5 99L1244 97L1241 92L1238.5 90.5L1235.5 88V85L1235 82.5L1233 79.5L1230.5 77.5L1229.5 75L1230 73V71.5L1229.5 69L1228 66.5L1227 62L1225.5 59.5L1223 58.5Z" fill="#8EE4AF"/>
<path d="M1223 96L1222 93.5H1222.5L1223.5 95.5L1224.5 98L1225 100.5L1225.5 102L1227.5 103L1229 105L1230 108L1231.5 109.5L1235 111L1235.5 116L1239 119.5L1242.5 123.5V125.5L1245.5 129.5L1247.5 127.5L1248.5 130H1237L1236.5 128H1235L1233.5 127L1233 125.5L1231.5 122.5L1230.5 122L1227 120.5L1224 118L1223 115V109.5L1222.5 107L1224.5 109.5L1225.5 112.5L1227 115L1228 117.5L1230 118.5L1230.5 118L1228.5 114.5V112.5L1227.5 111L1225.5 109L1224 106.5L1223 104.5V96Z" fill="#8EE4AF"/>
<path d="M1241 109.5L1239.5 107L1247.5 115.5L1253 122L1250.5 121L1248 120L1244 116L1243 114L1242 111.5L1241 109.5Z" fill="#8EE4AF"/>
<path d="M1291.5 87.5L1284 87V87.5L1285.5 89.5L1288 92L1290.5 94.5L1293 96.5L1296 98.5L1299.5 101L1304 105.5L1302 102L1299.5 97.5L1297 94L1295 91.5L1293.5 89L1291.5 87.5Z" fill="#8EE4AF"/>
<path d="M1237.5 7.5L1235 4L1238 6.5L1240.5 9L1242.5 11L1243.5 14L1246 15L1249 16.5L1250 18.5L1257 22L1262 27L1265 32L1261 30V31.5L1265 37L1265.5 40L1267.5 40.5L1270 43.5L1271 46.5L1272.5 47.5L1271.5 44L1270.5 38.5L1273 44.5L1274.5 45.5L1275 47.5L1277 48.5L1278.5 50.5L1280 54L1283.5 57L1288 60.5L1289 63L1289.5 65.5L1290 66.5L1290.5 65.5L1291 66L1291.5 67.5L1292.5 70.5L1292 73L1294 74L1297 77L1298.5 78.5L1301 82.5L1304.5 86L1307 89.5L1311 95L1312.5 98L1313.5 101L1316 106L1318 108L1321.5 112.5L1324 117.5L1325 121L1328 125L1329 127.5V129L1328 130L1325.5 125.5L1323.5 123L1320 119L1319 116L1317.5 111.5L1316 110L1312 105.5L1308.5 101L1305.5 97L1303.5 94L1301.5 91.5L1299 89.5L1297 87.5L1295 84.5L1293 84L1289.5 83L1286 80.5L1285 77L1283.5 74.5L1280.5 70.5L1278 71L1276 68.5L1274.5 66V63L1271.5 60.5L1269.5 58L1269 56L1267 53.5L1264.5 50.5L1262.5 48L1262 45L1261.5 43H1259.5L1258 44V43.5L1257.5 41L1256.5 37L1256 36L1253.5 34L1251.5 32.5L1250 29L1249.5 25.5H1247L1246 25L1244 23.5L1243 22L1241.5 19L1240 16L1238.5 13.5V12V9.5L1237.5 7.5Z" fill="#8EE4AF"/>
<path d="M1300.5 73L1299 69L1301 72.5L1303.5 74.5L1305 76.5L1308.5 80L1311.5 82L1313 85.5L1314.5 86.5L1316.5 89.5L1317 92.5H1316.5L1313 89L1311.5 88L1310 85.5L1309 83.5L1306 81L1302.5 78L1300.5 73Z" fill="#8EE4AF"/>
<path d="M1318 70V67.5L1320 70.5L1321.5 73L1323 75.5L1324 78.5L1326 80.5V82L1328 88.5L1327 86.5L1325 83L1324 81.5L1321.5 78L1319.5 73.5L1318 70Z" fill="#8EE4AF"/>
<path d="M1267 3L1265.5 0L1269.5 1.5L1274.5 5L1281 9.5L1283.5 9L1285.5 10L1285 11.5L1285.5 14L1288.5 15.5L1290 17L1290.5 19.5L1292 20L1297 24L1300.5 26.5L1302.5 32.5L1304.5 35L1307.5 37.5L1308 39.5L1310.5 44L1313 47.5L1315.5 49L1318.5 51V52.5L1318 56L1319 57.5L1321.5 60L1322 64L1323 66L1325.5 69L1327 72L1328 75.5L1329 77.5L1330 79.5L1333 82.5L1334 90L1333 87.5L1331 84L1328.5 80.5L1325.5 77L1323.5 74L1321 69L1320 67L1317.5 64.5L1317 60L1315 57.5L1312 54L1310.5 50.5L1308 47.5L1307.5 49L1309.5 51.5L1310.5 54.5L1311.5 58.5L1312.5 61.5L1311 60.5L1310 58L1309.5 54.5L1307.5 53L1306 51L1304 48.5L1301.5 44.5L1299 41L1297 37.5L1299 39.5L1301 41.5L1303.5 44L1303 41L1301 38.5L1298.5 37L1296 33.5L1293.5 31.5L1291 27.5L1288.5 24L1285 21L1283 19L1280 15.5V14L1276.5 11L1273.5 8.5L1270.5 6L1267 3Z" fill="#8EE4AF"/>
<path d="M1279 38.5L1274 36L1273.5 36.5L1275 39.5L1277.5 44L1280 48L1282.5 51L1288.5 57L1294.5 61.5L1290 55.5L1287 52L1284 48L1281.5 43.5L1279 38.5Z" fill="#8EE4AF"/>
<path d="M1292 15.5L1290 10.5L1295 14L1299.5 19L1303.5 25L1301 23L1297 19.5L1292 15.5Z" fill="#8EE4AF"/>
<path d="M1503 2.5L1505.5 0H1514.5L1514 1.5L1513.5 3.5L1511 5.5V7.5L1506.5 11L1506 12.5H1504L1501 15V17.5L1497.5 21H1494L1493.5 24L1490.5 23.5L1489 25H1487V26.5L1485 28.5L1482.5 30.5L1481.5 32L1479.5 32.5L1480.5 31L1482 28.5L1483 29L1484 28V26.5L1485.5 25L1486.5 23L1488.5 21.5L1489 19.5L1491.5 18L1492.5 16H1494.5L1496 15L1499.5 13L1499 11L1501.5 9L1500.5 6.5L1500 4.5H1501.5L1503 4V2.5Z" fill="#8EE4AF"/>
<path d="M1495 48H1493L1494 46.5L1496.5 45L1498.5 43.5L1499 41.5H1500.5L1503.5 39L1504 35.5L1506.5 34.5L1509 32.5L1510 31L1511 30.5L1511.5 28L1512 25.5L1517 21.5L1516.5 20L1518 18L1520 16.5L1521.5 14.5L1524 13V12H1526.5L1528.5 10.5L1529 5.5H1531V4.5L1532 0H1541.5L1541 2.5V5.5L1540 7L1537.5 8.5V11L1535 13H1533L1532.5 15L1531.5 16V18.5L1530 19.5H1528L1526.5 21L1524 23L1521.5 24.5L1523 26L1521 27L1520 29L1518.5 29.5L1517.5 30.5L1514.5 31H1513.5L1513 33V34.5L1511 37L1509 37.5L1508 39L1506.5 40.5L1504.5 42.5H1502L1501 43.5L1498.5 46L1496 46.5L1495 48Z" fill="#8EE4AF"/>
<path d="M1529 46L1527 48L1529.5 44L1532 42L1533 39L1535.5 37.5L1536.5 36L1537.5 33L1538.5 30L1542 29L1543.5 27L1544.5 23.5L1545 21L1548 20L1548.5 18H1551L1552 16L1553 14V13L1552.5 10L1556.5 8L1556.72 7L1558.5 5L1561 2L1561.5 0H1565L1563.5 2L1564 5V8.5L1561.5 10L1559.5 13H1559L1556.5 13.5L1555.5 15.5V17L1554.5 20L1552 21.5L1550 23V25.5V27.5L1547 28L1546 31L1543.5 31.5L1541 34.5L1540.5 37L1537.5 39.5L1534 41.5L1531.5 44.5L1529 46Z" fill="#8EE4AF"/>
</svg>
