<svg width="1728" height="131" viewBox="0 0 1728 131" fill="none" xmlns="http://www.w3.org/2000/svg">
<rect width="1728" height="130" fill="#05386B"/>
<g filter="url(#filter0_i_0_1)">
<path d="M85.5 123.5L85 124H86.5L87 123L88 122.5L88.5 121.5L89 121L90 120.5L90.5 119.5H91L92.5 118L93.5 116.5L94 116L95 115L96.5 114L97 113L96.5 112L98 111V110L98.5 108.5L99.5 108L100 107L101 106.5L101.5 105.5L101 105L102 104L102.5 102.5L103 101.5L103.5 99.5L104 98.5L102.5 99V100.5L102 101.5L101.5 103L100.5 103.5L100 104.5L99.5 105L99 105.5L99.5 106.5L98.5 107L97.5 108L96.5 109H95.5V110L94.5 111.5H93.5L92 112.5L92.5 113.5L93 114.5L92.5 115.5L92 116.5L91 117.5L90.5 118L89 118.5V119L88.5 119.5V120.5L87.5 121L87 122L86.5 123L85.5 123.5Z" fill="#FB0079"/>
<path d="M93.5 129L93 130H97.5L97 129L97.5 128.5C97.8333 128.167 98.6 127.5 99 127.5C99.4 127.5 99.8333 127.167 100 127L101.5 126L102 125V124.5L103.5 123.5V122.5L104 122L105.5 119.5V118H106L107 117.5L107.5 116.5L109 115L108.5 113.5H109L110 112.5V111.5L111 110L112 108.5L113 107V105.5L113.5 104.5L114.5 103L115 101.5L115.5 100L116 98.5L116.5 96L116 97L115.5 97.5V98.5L115 99L114.5 100.5L113.5 102L112.5 103.5L113 104L112 104.5V105.5L111.5 106.5L110 108V108.5L108.5 109.5V110.5L107.5 111L106.5 112.5L105.5 113.5L106 114V116H105V116.5H103.5L103 117L102.5 117.5L101 118L100.5 119.5V120.5L100 121.5H99L98 123L97.5 123.5H97L96.5 124L97.5 125V126L96.5 127V128L95.5 128.5L94.5 129H93.5Z" fill="#FB0079"/>
<path d="M106.5 129.5L106 130H112V129L112.5 128H113L114 127.5L115 127V125.5H115.5L116.5 125V122.5L117 122L117.5 120L118.5 118.5L119 117L119.5 116L121 115.5L121.5 114.5L121 113.5L122.5 112L123.5 110V108.5L124 108V107L124.5 105.5L125 104.5V103L125.5 102V101L126 99.5L126.5 97.5L126 98L125.5 99.5L125 100.5V101.5L124.5 102L123.5 102.5V103.5V104.5L123 105.5V106.5L122.5 108L122 109L121 109.5L120 111L119.5 112V114L118 115L116.5 115.5L117 116.5L116 117V118L115 118.5L114.5 119V119.5L113.5 120L112.5 121L112 122L112.5 124H110.5L111 124.5V125.5L110.5 127H109.5H108.5V127.5V128H107.5L107 129L106.5 129.5Z" fill="#FB0079"/>
<path d="M122 129.5L121 130H123.5L124 129L124.5 128H125.5L126.5 126.5H127.5L128 125.5V124L127.5 122.5L128 121.5L129 120L130 119L130.5 117L131 115V114.5L132 114L132.5 112.5L133 111V110L132.5 109V110.5L132 111.5L131.5 112.5L131 113L130 114.5V115.5V116.5L129.5 117.5L128.5 118V118.5L127 120L126.5 120.5L127 122L126.5 122.5L125 124L124.5 125L123.5 125.5L122.5 126V127.5L123 128L122.5 128.5L122 129.5Z" fill="#FB0079"/>
<path d="M252 115.5L251 111L253.5 117L255 120.5L257 123L258 124V126.5L260 128L259.5 129V130H253V129.5L253.5 126L253 123.5L252.5 121L251.5 120.5V119L252 115.5Z" fill="#FB0079"/>
<path d="M271 112V108.5L272 111.5L273 114L273.5 116L274.5 118L275.5 119L275 119.5L274.5 120.5V122.5L274 123L275.5 124H274.5V124.5L275 125.5L276 126.5V129.5V130H269L269.5 129L271 128V126.5L270 126L270.5 125.5L271 124L270.5 122.5L269.5 120.5L268.5 119.5L269 118.5L270 117.5L271 116V114.5H270L270.5 114L271 112Z" fill="#FB0079"/>
<path d="M288.5 128.5L289 129L288.5 130H293.5L293 127L293.5 125.5V123L294 119.5L295 119L294.5 118V115L295 112L295.5 109.5L295 110L294.5 111.5L294 112.5V113.5L293.5 114V115L293 116L292.5 116.5V118L291.5 119.5V120.5L290.5 122L289 123.5V125L288.5 126L287.5 127.5L288.5 128.5Z" fill="#FB0079"/>
<path d="M604 118L600 120L603.5 117L604 115L606 113.5L607 111L609 109.5L610.5 108.5L612 106.5L611.5 105.5L612.5 104L611 103L612 102L613.5 100.5L615.5 100L616.5 99L616 98V97L617.5 96.5L620 94.5L621.5 93.5V92.5L622 91L623 89.5L625.5 87L626.5 84.5L627 82L629 80.5V81.5L627.5 83.5V86L626 87V88.5L625 90L624.5 92L624 92.5L622.5 95L620 97V99L618.5 101V103.5L617 105L614 106.5L613.5 107.5L612 111L609 112.5L607.5 114.5L605.5 116L604 118Z" fill="#FB0079"/>
<path d="M611 129L610 130H617.5L619 128L618.5 126.5L620 125.5H622L624 123.5L626 121L626.5 119.5L628 117.5L628.5 116L630 114.5L630.5 112L632 110L634 109.5L635 107.5L636 103.5L638 102V100.5L639 98.5C639.5 97.6667 640.6 95.9 641 95.5C641.4 95.1 642.167 94 642.5 93.5V91L643.5 90L644.5 87.5L646 85.5L646.5 83L647.5 80.5V76.5L646.5 78.5V80.5L645.5 82.5L645 84L643 85L641.5 88L642 89.5L641 90.5V92.5L639.5 93.5L638.5 94L637 96.5L636.5 97L636 98L635 99.5L633.5 100L632.5 102L631.5 103L632.5 103.5L632 105.5L631.5 106.5L631 107L630.5 108L629 107.5L627.5 108L627 109L626 109.5L624.5 110.5L624 112L624.5 113L623.5 114.5L622 115.5L621 116L620.5 117.5L619.5 118.5H618.5V119.5L619.5 121.5L618.5 122.5L618 124V125.5L616 126L614.5 126.5L613 127L612.5 128L611 129Z" fill="#FB0079"/>
<path d="M631.5 129L631 130H638L639 129.5L641 128L641.5 126.5L643 125.5L645 124L644.5 122.5L646.5 121.5L647.5 121V119.5C647.5 119.1 647.833 117.667 648 117L649 114.5L650 113L651 111.5V109.5L652 107.5L653.5 107L656 105.5L655 105V103L656.5 101L658 99V96.5L659.5 95.5V93.5V91L660.5 88L662 86V85V84L662.5 79.5L662 81.5L661 83L660.5 85.5L659.5 86L658.5 88V89.5L657.5 92.5L656.5 96L655 97L653.5 98.5L652 101V104.5L649.5 105.5L647.5 108.5L646 110.5L644 113L642 114.5L641.5 118L641 119.5H639.5L639 123L636 124.5L634 126L632.5 127.5L631.5 129Z" fill="#FB0079"/>
<path d="M653.5 129.5L652.5 130H658.5L659 129V127L660 125.5L662 124.5L663 123.5L664.5 121.5L665 119.5L665.5 117V115L667 113L668.5 111L669.5 108L670 105L671 103.5L672 101L672.5 99V96L672 99.5L671 101L670 102.5L668.5 104.5V106.5L668 108L667 109.5L666 111L664.5 112.5L663.5 114V115.5L663 117.5L661 119L660 120.5L659.5 121.5L656 123L657.5 125L656.5 125.5V128H655L653.5 129.5Z" fill="#FB0079"/>
<path d="M1480.5 126L1481 129.5V130H1486L1487.5 128.5L1486 126.5V124H1484.5L1482.5 120L1478.5 110L1479.5 115.5L1479 120L1480 120.5L1481 124.269L1480.5 126Z" fill="#FB0079"/>
<path d="M1497.5 129L1497 130H1503L1503.5 126.5L1502 124.269L1503 123.5L1502 122.5L1503 119.5L1502.5 118.5L1501 116L1498.5 108V112.5L1497.5 114.5H1498.5V116.5L1496 119.5L1498 122L1498.5 125.156L1497.5 126L1498.5 126.5V127.5L1497.5 129Z" fill="#FB0079"/>
<path d="M1516.5 129L1515.5 129.5L1514.75 130H1520L1520.5 128V125.5V123L1521 120L1522.5 119C1522.33 118.667 1522 117.9 1522 117.5V114.5L1523 109.5L1522.5 111L1521 113.5L1520.5 116L1519.5 118.5L1519 120L1518 122L1516.74 123.5V125.156L1516 126L1515 127.5V128.5L1516.5 129Z" fill="#FB0079"/>
<path d="M1671 2.5L1670.5 0H1676L1678 2.5V4.5L1678.5 5.5L1680 7.5L1681.5 8.5L1681 9.5L1679 11.5L1681.5 12.5L1684.5 14L1686 16L1684.5 18.5L1685 22.5L1686.5 26L1688.5 29H1692L1690.5 31L1688.5 33.5L1689.5 34.5L1692 38.5L1692.5 44.5L1695 49.5L1692 46.5L1690.5 44.5L1686.5 39.5L1685 36.5L1683.5 32.5L1680.5 28.5L1678.5 26L1676.5 26.5L1677 22.5L1676 20.5L1675.5 18L1674.5 17.5L1672 14L1671.5 11.5L1670.5 10.5L1670 8L1670.5 5.5L1671 2.5Z" fill="#FB0079"/>
<path d="M1699 2V0H1704.5L1706.5 1H1705.5L1705 2L1705.5 4L1707 5V10.5L1706 12.5V14.5L1708 16L1709.5 17V17.5L1707.5 18.5L1707 19L1708 21L1710 22L1709.5 24.5L1709 28.5L1708 30.5L1707.5 33L1707 35.5L1706.5 37.5L1705.5 41.5L1705 42.5L1704.5 44.5L1704 42.5V39.5V37.5L1703.5 33L1703 29L1702.5 28V24.5L1701 24L1702 23L1701.5 20.5L1701 18.5L1700 16.5L1698.5 14L1697.5 12L1696.5 11.5L1697 10L1698.5 9L1699.5 7.5L1699 5.5L1698.5 5L1697.5 4.5L1698.5 4L1699 2Z" fill="#FB0079"/>
<path d="M1726 11L1728 9.5V23.5L1725.5 29L1722.5 34.5L1720.5 39.5L1718 44L1714 48.5L1716 44L1716.5 42.5V40V36.5L1718 34L1719.5 32L1718.5 30.5L1717 28.5H1719L1719.5 27.5L1721 26L1722 23.5L1722.5 21L1723 18.5L1722 16.5C1722.17 15.8333 1722.5 14.4 1722.5 14C1722.5 13.6 1723.5 12.5 1724 12L1726 11Z" fill="#FB0079"/>
</g>
<g filter="url(#filter1_i_0_1)">
<path d="M929.503 99.7665L930.75 91.4018L927.701 102.545L925.873 109.045L923.464 113.68L922.263 115.532L922.23 120.184L919.834 122.958L920.415 124.823L921.597 125.761L920.99 127.618L918.607 128.532L918 130L926 130L926.936 126.73L928.131 125.808L927.583 119.291L928.21 114.644L928.837 109.996L930.031 109.074L930.051 106.283L929.503 99.7665Z" fill="#8EE4AF"/>
<path d="M906.977 93.0945L907.023 86.5822L905.795 92.1558L904.574 96.7991L903.954 100.516L902.74 104.229L901.538 106.082L902.126 107.016L902.707 108.881L902.68 112.602L903.268 113.537L901.473 115.385L902.661 115.393L902.654 116.324L902.047 118.18L900.846 120.032L900.806 125.615L901.981 127.484L901.968 129.344L901.981 130L907 130L907.314 129.382L908.515 127.53L908.535 124.739L906.766 122.866L906.786 120.074L907.98 119.153L907.393 118.218L906.819 115.423L907.432 112.636L908.647 108.923L909.848 107.071L909.267 105.206L908.092 103.337L906.924 100.537L906.944 97.7463L908.132 97.7547L907.544 96.8201L906.977 93.0945Z" fill="#8EE4AF"/>
<path d="M886.543 126.444L887.725 127.383L888.5 130L882.5 130L881.785 127.341L881.204 125.476L880.643 120.82L880.068 118.025L880.101 113.373L879.553 106.857L878.372 105.918L878.979 104.061L879.019 98.4793L878.464 92.893L877.903 88.2371L878.49 89.1717L879.065 91.9669L879.645 93.8318L879.632 95.6925L880.22 96.627L880.207 98.4877L880.787 100.353L881.375 101.287L881.355 104.078L882.523 106.878L882.51 108.738L883.679 111.538L885.441 114.341L885.421 117.132L886.002 118.997L887.17 121.797L885.969 123.649L885.369 124.575L886.543 126.444Z" fill="#8EE4AF"/>
<path d="M524.993 126.977L528.537 129.794L528.577 130L532.5 130L530.933 127.019L528.577 124.211L526.808 122.338L525.052 118.604L525.659 116.748L524.491 113.948L526.286 112.1L525.111 110.231L523.349 107.427L520.98 106.48L519.805 104.611L520.412 102.755L520.425 100.894L518.65 99.9512L515.706 96.2088L513.937 94.3355L513.95 92.4749L513.376 89.6796L512.207 86.8802L509.27 82.2075L508.115 77.5474L507.554 72.8914L505.198 70.0836L505.185 71.9443L506.94 75.6783L506.907 80.33L508.676 82.2033L508.657 84.9943L509.825 87.7938L510.393 91.5193L510.98 92.4539L512.729 97.1182L515.673 100.861L515.647 104.582L517.402 108.316L517.369 112.968L519.132 115.771L522.676 118.587L523.257 120.452L524.993 126.977Z" fill="#8EE4AF"/>
<path d="M510.149 125.942L510.724 128.737L510.724 130L503.5 130L503.001 128.683L501.246 124.949L498.876 124.002L497.714 120.272L496.579 112.821L494.223 110.013L494.242 107.222L493.081 103.492C492.498 101.937 491.214 98.6408 490.744 97.8932C490.274 97.1455 489.378 95.0924 488.988 94.1592L489.021 89.5075L487.846 87.6384L486.691 82.9783L484.935 79.2444L484.374 74.5884L483.219 69.9283L483.272 62.4856L484.433 66.2153L484.407 69.9367L485.569 73.6665L486.143 76.4617L488.506 78.3392L490.249 83.9339L489.635 86.7207L490.81 88.5898L490.783 92.3111L492.552 94.1844L493.734 95.1231L495.483 99.7874L496.07 100.722L496.651 102.587L497.82 105.386L499.595 106.329L500.757 110.059L501.932 111.928L500.737 112.85L501.305 116.576L501.886 118.44L502.473 119.375L503.054 121.24L504.843 120.322L506.618 121.265L507.199 123.13L508.38 124.069L510.149 125.942Z" fill="#8EE4AF"/>
<path d="M482.851 122.027L484.607 125.761L487 130L479 130L478.653 127.58L478.68 123.859L477.518 120.129L475.743 119.186L472.792 116.374L473.987 115.452L474.013 111.731L472.257 107.997L470.502 104.263L470.534 99.6111L468.765 97.7378L468.792 94.0165L468.825 89.3648L467.676 83.7743L465.92 80.0404L465.934 78.1797L465.947 76.319L465.412 67.9417L465.98 71.6672L467.148 74.4667L467.709 79.1226L468.89 80.0613L470.052 83.7911L470.032 86.5821L471.181 92.1726L472.323 98.6934L474.092 100.567L475.854 103.37L477.603 108.035L477.557 114.547L480.514 116.429L482.851 122.027Z" fill="#8EE4AF"/>
<path d="M460.839 126.524L462.602 129.328L463 130L459.5 130L457.869 126.503L456.721 120.912L456.166 115.326L454.998 112.527L453.843 107.867L453.275 104.141L453.315 98.5591L453.863 105.076L455.031 107.875L456.199 110.674L457.955 114.408L457.929 118.13L458.503 120.925L459.671 123.724L460.839 126.524Z" fill="#8EE4AF"/>
<path d="M1309.12 122.279L1307.92 123.201L1307 126.738L1307 130.03L1302.53 130.03L1302.53 129.676L1304.96 122.25L1309.84 103.677L1308.58 113.902L1309.12 122.279Z" fill="#8EE4AF"/>
<path d="M1288.93 121.206L1286.52 125.841L1287 130.03L1281.74 130.03L1280.56 128.59L1281.76 126.738L1280.61 121.148L1281.22 119.291L1283.03 114.652L1286.11 99.7874L1286.05 108.161L1287.21 111.89L1286.02 111.882L1286 115.603L1288.93 121.206Z" fill="#8EE4AF"/>
<path d="M1262.76 125.673L1264.24 128.475L1264.24 130.03L1259.87 130.03L1259.78 127.513L1259.22 121.927L1257.45 120.053C1257.65 119.435 1258.06 118.011 1258.07 117.267L1258.1 111.685L1256.98 102.373L1257.56 105.168L1259.31 109.832L1259.87 114.488L1261.02 119.148L1261.6 121.944L1262.76 125.673Z" fill="#8EE4AF"/>
<path d="M85.8856 11.9126L87.7072 6.34317L90 1.43373e-08L84.0001 4.17162e-07L83.5885 0.731738L82.3873 2.58401L79.3647 10.0058L78.6918 21.1657L75.6559 30.4481L79.2595 24.8912L81.0678 21.1825L85.8856 11.9126Z" fill="#8EE4AF"/>
<path d="M65.0951 11.7657L65.1214 8.04435L65 4.5L65 2.5L64.4999 -5.74987e-07L61 -3.0839e-07L61.5838 4.29778L62.1514 8.02336L63.2869 15.4745L63.8677 17.3394L64.4354 21.0649L65.0557 17.3478L65.0951 11.7657Z" fill="#8EE4AF"/>
<path d="M50.2844 6.07869L48.5352 1.41439L48 2.94421e-08L42.5 -1.80813e-07L43.1824 2.30694L45.4927 11.6272L48.4037 20.0212L53.0966 28.4279L50.7797 20.038L50.2055 17.2428L50.2384 12.5911L50.2844 6.07869Z" fill="#8EE4AF"/>
</g>
<g filter="url(#filter2_i_0_1)">
<path d="M1040.27 125.096L1040.96 129.009L1040.96 130L1033.12 130L1031.97 128.576L1031.63 126.62L1034.69 125.07L1039.4 120.206L1042.3 117.678L1041.95 115.722L1042.52 112.597L1044.16 109.282L1048.69 103.439L1049.99 98.1678L1050.21 93.0867L1054.01 89.3907L1054.36 91.3469L1051.81 95.8307L1052.67 100.721L1049.77 103.249L1050.29 106.183L1048.65 109.498L1048.26 113.601L1047.35 114.77L1044.98 120.232L1040.27 125.096Z" fill="#FB0079"/>
<path d="M1070.46 125.824L1068.99 130.118L1081 130L1080.87 128.023L1080.35 125.089L1081.82 120.795C1082.61 118.975 1084.38 115.1 1085.1 114.165C1085.83 113.23 1087.1 110.786 1087.65 109.681L1086.79 104.79L1088.6 102.453L1089.9 97.1819L1092.45 92.6981L1092.67 87.617L1093.97 82.3455L1092.59 74.5205L1091.12 78.8138L1091.81 82.7263L1090.34 87.0197L1089.77 90.1445L1085.8 92.8624L1083.6 99.3025L1085.19 102.046L1083.38 104.384L1084.07 108.296L1081.17 110.824L1079.19 112.183L1076.81 117.644L1075.9 118.813L1075.17 120.96L1073.52 124.275L1070.46 125.824Z" fill="#FB0079"/>
<path d="M1110.76 120.735L1111.96 127.582L1112.5 130L1119 130L1118.62 127.418L1117.93 123.505L1120.48 119.022L1123.03 114.538L1122.16 109.647L1125.06 107.12L1124.37 103.207L1123.51 98.3165L1124.63 92.0669L1127.18 87.5832L1126.83 85.6269L1126.49 83.6706L1126.02 74.677L1125.63 78.7799L1123.99 82.0952L1123.77 87.1762L1121.78 88.5352L1120.31 92.8285L1120.83 95.7629L1119.7 102.013L1118.75 109.24L1115.86 111.768L1113.13 115.273L1110.76 120.735Z" fill="#FB0079"/>
<path d="M1148.29 125.211L1147.73 128.336L1147.5 130L1151 130L1150.97 127.765L1151.01 121.706L1152.65 118.39L1153.95 113.119L1154.34 109.016L1153.31 103.147L1153.43 110.185L1151.79 113.5L1150.15 116.815L1147.6 121.299L1148.29 125.211Z" fill="#FB0079"/>
</g>
<defs>
<filter id="filter0_i_0_1" x="85" y="0" width="1643" height="134" filterUnits="userSpaceOnUse" color-interpolation-filters="sRGB">
<feFlood flood-opacity="0" result="BackgroundImageFix"/>
<feBlend mode="normal" in="SourceGraphic" in2="BackgroundImageFix" result="shape"/>
<feColorMatrix in="SourceAlpha" type="matrix" values="0 0 0 0 0 0 0 0 0 0 0 0 0 0 0 0 0 0 127 0" result="hardAlpha"/>
<feOffset dy="7"/>
<feGaussianBlur stdDeviation="2"/>
<feComposite in2="hardAlpha" operator="arithmetic" k2="-1" k3="1"/>
<feColorMatrix type="matrix" values="0 0 0 0 0 0 0 0 0 0 0 0 0 0 0 0 0 0 0.25 0"/>
<feBlend mode="normal" in2="shape" result="effect1_innerShadow_0_1"/>
</filter>
<filter id="filter1_i_0_1" x="42.5" y="-5.74987e-07" width="1267.34" height="134.03" filterUnits="userSpaceOnUse" color-interpolation-filters="sRGB">
<feFlood flood-opacity="0" result="BackgroundImageFix"/>
<feBlend mode="normal" in="SourceGraphic" in2="BackgroundImageFix" result="shape"/>
<feColorMatrix in="SourceAlpha" type="matrix" values="0 0 0 0 0 0 0 0 0 0 0 0 0 0 0 0 0 0 127 0" result="hardAlpha"/>
<feOffset dy="7"/>
<feGaussianBlur stdDeviation="2"/>
<feComposite in2="hardAlpha" operator="arithmetic" k2="-1" k3="1"/>
<feColorMatrix type="matrix" values="0 0 0 0 0 0 0 0 0 0 0 0 0 0 0 0 0 0 0.25 0"/>
<feBlend mode="normal" in2="shape" result="effect1_innerShadow_0_1"/>
</filter>
<filter id="filter2_i_0_1" x="1031.63" y="74.5204" width="122.714" height="59.5971" filterUnits="userSpaceOnUse" color-interpolation-filters="sRGB">
<feFlood flood-opacity="0" result="BackgroundImageFix"/>
<feBlend mode="normal" in="SourceGraphic" in2="BackgroundImageFix" result="shape"/>
<feColorMatrix in="SourceAlpha" type="matrix" values="0 0 0 0 0 0 0 0 0 0 0 0 0 0 0 0 0 0 127 0" result="hardAlpha"/>
<feOffset dy="7"/>
<feGaussianBlur stdDeviation="2"/>
<feComposite in2="hardAlpha" operator="arithmetic" k2="-1" k3="1"/>
<feColorMatrix type="matrix" values="0 0 0 0 0 0 0 0 0 0 0 0 0 0 0 0 0 0 0.25 0"/>
<feBlend mode="normal" in2="shape" result="effect1_innerShadow_0_1"/>
</filter>
</defs>
</svg>
