<svg width="1831" height="133" viewBox="0 0 1831 133" fill="none" xmlns="http://www.w3.org/2000/svg">
<path fill-rule="evenodd" clip-rule="evenodd" d="M0 55.9764L1.43233 54.633L2.38722 52.8418V50.6027L3.81956 53.2896L6.20678 52.8418L7.16167 51.0505L8.594 50.1549L9.54889 47.468V45.229H10.9812L12.4136 44.7811L13.8459 42.9899H14.8008L16.2331 42.0943L17.188 40.303L18.6203 39.4074H20.0527L21.0076 37.6162V36.2727V34.9293L21.9625 34.0337L22.9173 32.2424L23.3948 30.899L24.8271 29.5556L26.7369 29.1077L27.6918 27.7643L29.1241 26.4209L29.6016 25.9731V24.6296L30.5565 22.8384L31.5113 21.4949V20.1515L31.9888 18.3603L32.4662 16.1212L34.8535 14.7778L36.7632 11.6431L35.8083 16.1212L34.376 18.3603L33.4211 21.4949L33.8986 23.2862L31.9888 24.6296L30.5565 27.3165L29.6016 30.899V33.138L28.1692 35.8249L26.2595 38.064L23.3948 40.303L21.485 42.5421L20.0527 45.229L19.0978 49.2593L17.188 52.8418C16.7106 54.0359 15.6602 56.5138 15.2782 56.8721C14.8963 57.2303 14.8008 59.7082 14.8008 60.9024L11.9361 62.6936L8.594 64.4848L3.81956 68.5152L0.954889 72.0976L0 73.8889V79.7104V89.5623V99.862V107.027V109.714L0.954889 109.266L1.90978 106.579L3.81956 107.027L5.25189 106.579L7.63911 105.684L9.54889 104.34L10.9812 103.892L12.4136 102.997V99.862L13.8459 98.5185L15.7557 97.1751L15.2782 94.4882L13.8459 92.697V90.4579H15.7557L17.188 88.6667L18.1429 88.2189L19.0978 85.0842L21.0076 83.7407H22.9173L24.8271 81.5017L26.2595 80.1583L25.782 78.367L24.8271 76.5758L26.7369 75.2323L27.6918 72.9933L30.079 72.0976L31.5113 71.6498L32.4662 69.8586L33.4211 69.4108L34.8535 67.6195L38.1956 68.0673L40.1053 66.7239L42.97 66.2761V63.5892L43.4475 60.9024L42.4926 59.1111H41.0602L43.9249 57.3199L45.8347 55.0808L47.267 52.8418L50.1317 51.0505L52.0415 49.2593V47.468L53.9512 45.229L54.9061 44.7811L55.861 42.5421L57.7708 40.303L59.6806 38.9596L61.5904 38.064L63.0227 35.8249V34.4815V32.2424L64.455 31.7946L65.8874 30.899L64.455 27.7643L65.4099 25.9731L68.2746 23.2862L69.2295 21.9428L71.1392 20.1515L72.0941 17.4646L72.5716 14.7778L74.4814 13.4343V11.6431L75.4362 9.40404L76.3911 7.61279L77.346 4.47811V11.1953L76.3911 13.4343L75.4362 16.569V18.8081L74.0039 22.8384L72.5716 27.3165L69.7069 29.5556L67.3197 31.7946C66.8422 32.9888 65.9828 35.4667 66.3648 35.8249C66.7468 36.1832 66.2056 38.9596 65.8874 40.303L61.5904 47.0202L58.2482 51.0505C57.7708 52.2447 56.9114 54.7226 57.2934 55.0808C57.6753 55.4391 56.4976 56.4242 55.861 56.8721L52.0415 59.1111V62.2458L50.1317 66.2761L49.1768 68.963L46.7896 70.3064L43.9249 71.6498L42.97 72.0976L42.0151 76.1279L41.0602 78.367L40.1053 80.1583L37.7181 81.5017L34.8535 85.532L34.376 90.4579L31.0339 92.697L30.079 95.3838L27.6918 98.5185L23.3948 100.758L21.0076 102.101L18.1429 102.549L15.2782 105.684V108.818L12.4136 112.401L7.63911 115.535H4.77445L3.34211 118.222L0.954889 119.566H0V126.731V133H25.3046L26.7369 131.657L27.6918 130.761L30.079 130.313H30.5565L30.079 128.97L31.5113 127.626V124.492L32.4662 122.7L32.9437 120.909L34.8535 119.566L37.7181 117.327L39.6279 115.983L41.0602 114.64L40.5828 112.401L41.5377 110.162L42.97 111.057L43.4475 109.714L44.4023 108.37L45.3572 107.475L46.3121 106.131L48.2219 103.892L50.1317 103.444L51.564 102.997V101.205L53.9512 101.653L55.3836 101.205L57.7708 100.31L58.2482 97.6229L58.7257 93.5926L59.2031 91.3535L61.5904 92.2492L62.5452 91.8013L63.5001 86.8754V84.6364L64.9325 81.9495L66.3648 81.0539L70.1844 77.4714H70.6618H71.6167V76.1279L73.5265 74.7845L75.4362 73.8889L76.3911 72.9933V70.7542L77.346 68.5152L78.7784 66.7239L80.6881 64.4848H82.1205L84.0302 62.2458L85.4626 60.9024L86.4175 59.5589L86.8949 57.7677L87.3724 55.5286V54.1852L88.8047 53.7374V52.3939L90.237 50.1549L91.1919 48.8114L92.6243 47.0202L95.0115 45.6768L96.4438 42.9899L97.3987 39.8552L98.3536 37.6162L99.3085 35.3771L100.741 33.138L101.218 31.3468V28.6599L100.741 26.8687L102.173 25.5253L104.56 23.734L105.993 21.9428V20.1515V18.8081L106.948 17.4646L107.902 14.7778L108.857 12.5387L109.812 11.1953V13.8822L108.857 15.6734L107.902 18.3603V20.5993L108.38 23.2862L106.948 25.0774L105.515 29.1077L105.038 32.2424L103.605 34.0337L102.173 36.7205V40.7508L100.263 42.5421L100.741 47.0202L99.7859 49.2593L98.831 51.4983L97.8761 52.8418C97.717 53.1403 97.3032 53.8269 96.9213 54.1852C96.5393 54.5434 95.1706 56.1257 94.534 56.8721C94.2157 57.3199 93.5791 58.3051 93.5791 58.6633V61.3502L94.534 63.1414L92.1468 64.4848L90.237 66.2761L88.3272 66.7239L86.4175 68.963L84.5077 70.7542L84.9851 72.5455V74.7845L84.0302 75.6801L82.5979 77.4714L81.1656 79.7104L80.6881 81.5017L80.2107 83.7407L79.2558 85.0842L77.8235 87.771L78.3009 89.1145L77.346 92.697V94.936L76.8686 95.3838L75.4362 95.8317H72.5716L72.0941 97.6229L71.6167 99.862V101.205L70.6618 101.653L68.752 102.101L68.2746 102.997L66.3648 103.892L64.9325 104.34L64.455 107.027L63.0227 107.923L63.5001 109.266V110.609L59.2031 112.401H58.2482L57.2934 111.953L56.3385 113.744L55.3836 114.64L55.861 115.983H54.4287C53.4738 116.132 51.564 116.521 51.564 116.879C51.564 117.237 50.6091 118.521 50.1317 119.118L48.6993 120.013C48.3811 120.163 47.7445 120.551 47.7445 120.909C47.7445 121.267 48.6993 122.253 49.1768 122.7L48.2219 123.596C47.4262 123.895 45.8347 124.581 45.8347 124.939C45.8347 125.298 44.5615 125.984 43.9249 126.283L42.97 127.626L42.0151 128.522L39.6279 129.418L41.0602 130.313H39.1505H36.2858L35.3309 131.209L34.376 133H42.4926H51.0866H62.5452H71.6167L73.049 132.552L74.0039 131.657L74.4814 129.865V128.522L75.9137 128.074L78.3009 127.178L80.6881 126.283L81.643 125.387L82.1205 123.148L83.0754 121.805L84.0302 120.909L83.5528 118.67L85.4626 116.879L86.4175 115.535L86.8949 113.296H88.8047L91.1919 112.401L92.6243 110.609L94.534 109.714L95.9664 109.266L96.4438 107.027L96.9213 105.236L98.831 104.34L98.3536 103.892L96.9213 103.444L97.3987 101.205V98.9663L98.3536 98.0707L100.741 96.2795L103.128 95.3838L104.083 94.936L105.038 92.697L107.425 90.0101L109.812 88.6667L111.245 85.9798L111.722 84.1886V83.2929L111.245 82.3973L112.677 80.6061L112.199 78.8148L113.632 77.0236L115.064 76.5758L117.451 74.7845V73.4411L118.884 72.5455L120.793 69.4108L121.748 66.7239V64.4848L121.271 62.2458L122.703 61.3502L124.613 59.1111L126.045 58.2155L127.478 56.8721V54.1852L127.955 52.3939L129.865 51.0505L130.342 48.3636L130.82 44.7811L131.297 43.4377L131.775 46.1246V48.3636L131.297 50.6027L130.82 51.9461L129.865 53.7374V56.8721L129.387 58.2155L128.433 59.5589L127 60.4545C126.682 60.6038 126.045 60.9919 126.045 61.3502C126.045 61.7084 125.727 62.3951 125.568 62.6936L124.613 64.9327V67.1717L124.136 69.8586L123.658 71.6498L122.703 72.9933C122.544 73.2918 122.226 73.9785 122.226 74.3367C122.226 74.695 121.271 75.9787 120.793 76.5758L118.884 78.8148L117.451 80.6061L116.974 82.3973L116.019 85.532L115.542 88.6667L115.064 90.4579V92.697V95.3838L113.632 97.1751L112.199 98.9663H109.812L108.857 101.653L107.902 102.549L105.993 102.997L104.083 104.34L102.651 104.788L101.218 107.475L102.173 109.714L100.741 111.953C100.104 112.55 98.831 113.834 98.831 114.192C98.831 114.55 96.9213 115.535 95.9664 115.983L93.5791 118.67L92.6243 120.461L91.6694 123.148L92.6243 124.492L91.1919 125.387L88.3272 126.731L85.94 128.074L84.9851 130.313H83.0754L81.643 131.209L80.6881 132.552L83.0754 133H91.1919H95.0115H160.899H236.813H277.395H421.106H610.174H800.197H964.916V128.522L958.709 121.357V116.431L955.367 114.192V106.579V98.5185L952.979 90.4579L950.592 87.3232H948.682L950.592 82.3973L948.205 64.9327V60.9024L946.773 54.633L949.637 60.4545L951.07 64.9327L952.979 70.7542L955.367 77.4714L959.664 85.0842L963.006 90.4579L965.87 95.8317L968.735 98.0707H971.122V100.758V103.444L973.032 106.579L975.419 110.162L976.852 111.057L974.464 114.192L972.077 115.983C972.714 116.132 974.082 116.521 974.464 116.879C974.846 117.237 975.897 117.924 976.374 118.222L981.149 120.909L984.491 123.596L985.446 125.835L984.013 128.97L983.058 132.104L985.446 133H999.292H1015.52L1016 131.209L1014.57 127.626L1012.66 123.596L1009.32 119.566L1007.41 117.774V113.744L1009.32 111.953L1011.71 110.162L1012.18 106.579L1010.75 103.892L1008.36 103.444L1011.71 100.758V95.8317L1010.27 91.3535L1006.93 86.8754L1004.07 84.6364L1005.5 81.9495L1009.32 78.8148L1011.23 75.6801L1012.18 73.4411L1011.71 69.8586H1008.84L1010.27 67.1717L1011.71 65.3805L1012.66 63.5892V59.5589V52.3939L1011.23 48.3636L1014.09 53.7374L1014.57 58.2155L1017.43 65.8283L1020.78 76.1279L1022.69 80.6061L1024.12 82.8451H1026.51L1024.12 86.8754L1023.16 92.2492V95.3838L1026.51 96.7273L1024.12 98.5185L1022.69 98.9663L1024.6 100.758L1026.03 102.997L1027.94 104.788L1027.46 111.953L1026.98 115.088L1025.07 116.879L1024.12 118.67L1025.55 121.805L1028.42 124.492L1030.8 125.387L1033.67 126.283L1031.76 127.626L1029.37 128.522L1026.51 129.865L1028.89 133H1058.02L1058.97 129.865L1056.58 127.626L1057.06 124.492L1058.97 120.909L1062.79 116.879L1067.57 115.088L1069.48 113.744L1066.13 110.162L1063.75 108.37L1067.09 105.684L1069.48 102.549L1070.91 100.758L1069.48 97.6229L1069 96.2795L1071.86 94.0404L1073.77 92.2492L1076.64 88.2189L1078.55 84.6364L1079.98 81.0539L1080.93 77.0236L1082.84 73.8889L1084.75 68.963L1085.71 63.5892L1087.62 59.1111L1090.01 54.1852L1089.53 58.6633L1087.62 64.037V70.7542V78.367L1088.1 81.5017L1084.75 85.0842L1084.28 87.771L1083.8 92.2492V96.7273V101.205V109.266L1081.41 110.609V114.64L1079.98 117.774L1077.11 120.909L1074.25 124.044V127.626L1072.34 130.313L1073.3 133H1084.75H1145.39H1213.19H1266.66H1275.25L1277.64 127.178L1282.89 124.492V115.983L1292.44 108.818H1296.74V100.758L1303.42 93.5926L1309.15 90.0101L1317.27 86.8754L1321.09 82.3973L1322.52 76.1279L1329.21 77.4714L1336.37 76.1279L1342.1 72.0976L1346.39 68.0673L1354.03 67.1717L1362.15 62.6936L1365.01 60.0067L1362.15 50.1549L1365.01 46.1246L1371.22 42.5421L1375.04 38.9596L1373.13 31.3468L1369.79 25.5253L1365.01 20.1515L1369.79 15.2256H1375.04L1380.29 9.40404H1385.07V4.0303L1386.02 0H0V55.9764ZM1498.22 133H1625.7L1628.09 126.731L1629.04 120.013L1635.25 112.401L1637.63 105.684L1642.41 99.4141L1652.44 98.0707L1657.69 90.9057L1661.03 87.771H1668.19L1674.4 81.9495L1676.31 73.4411L1679.17 67.6195L1682.04 66.7239L1679.17 59.1111V47.468L1682.04 41.6465L1687.29 39.8552L1694.45 33.5859L1704.48 30.899L1705.91 25.0774L1711.64 14.33L1720.71 8.95623L1724.53 3.13468L1729.78 0H1607.56V11.6431L1606.12 20.5993L1601.83 32.2424L1591.8 33.5859L1587.98 37.1684L1585.59 43.8855L1584.64 54.1852H1578.91L1573.66 60.0067L1565.54 62.6936L1557.42 67.1717L1556.47 75.6801H1552.65V82.3973V91.3535L1547.88 94.4882H1536.89L1529.73 98.0707L1523.05 102.549V107.475L1514.45 111.953L1507.29 117.327L1502.04 121.805L1498.22 127.178L1500.13 128.522L1498.22 133ZM1659.12 133H1831V0H1746.97V20.5993L1749.83 22.8384L1746.01 25.9731L1745.06 33.5859L1746.01 37.1684L1739.33 41.6465L1735.51 46.1246H1727.39L1720.71 56.8721L1717.85 62.2458H1709.25L1704.48 66.7239L1696.36 73.4411L1697.32 83.2929L1692.06 98.0707L1676.31 110.162L1668.19 112.401L1662.94 120.909L1663.89 128.074L1659.12 133ZM1442.36 125.387L1436.63 127.626V133H1287.67L1290.53 129.865L1296.74 128.074L1301.99 127.178L1305.81 123.148H1311.06L1318.7 121.357L1324.43 120.461L1329.68 118.67V112.401L1331.59 108.818L1337.8 107.475L1345.92 105.684L1353.56 102.549L1358.33 98.0707L1365.01 94.936L1368.36 88.2189L1373.61 83.7407L1371.22 76.1279V72.0976L1378.38 67.1717L1383.16 61.798L1387.93 58.2155H1395.57L1399.39 55.5286L1402.73 51.9461H1406.55L1417.06 45.229L1424.22 36.2727L1431.86 31.3468L1429.47 21.4949L1431.86 20.1515L1441.88 13.4343L1446.18 8.06061L1448.57 2.23906V0H1553.6V3.13468L1550.74 10.7475L1549.79 19.2559L1541.19 20.5993L1535.46 17.4646V27.7643V39.8552L1532.12 50.6027L1525.91 55.0808L1517.8 56.8721L1508.72 52.8418V60.0067L1505.38 62.6936L1500.61 64.4848L1492.97 67.1717L1485.81 73.8889V79.7104L1481.03 80.6061L1476.26 88.2189L1470.53 89.5623L1466.71 98.0707V107.475L1464.32 111.953L1458.12 114.64L1452.86 117.327L1448.09 123.596L1442.36 125.387Z" fill="#ADFFE8" fill-opacity="0.98"/>
</svg>
