<svg width="128" height="128" viewBox="0 0 128 128" fill="none" xmlns="http://www.w3.org/2000/svg">
<circle cx="64" cy="64" r="60" fill="#5CDB95"/>
<path d="M37.5 87.5L37 91.5H90.5V89L90 85L88.5 81L86.5 77L84.5 74L82 71L80 68.5L77.5 66.5L75 65L73.5 64L75.5 61.5L77 59.5L78.5 56.5L79 53.5V50.5L78.5 48.5L78 46.5L76.5 43.5L75 42L73 40L70.5 38.5L68 37.5L65.5 37H62L60 37.5L58.5 38L56.5 39L54.5 40.5L52 43L50.5 45.5L49.5 47.5L49 50V54.5L49.5 56.5L50.5 58.5L51.5 60.5L53 62.5L54.5 64L53 65L50 67L47 69.5L45 72L43.5 74L41.5 77L39 82L37.5 87.5Z" fill="#EDF5E1"/>
</svg>
