<svg width="90" height="121" viewBox="0 0 90 121" fill="none" xmlns="http://www.w3.org/2000/svg">
<path fill-rule="evenodd" clip-rule="evenodd" d="M1 30V106V107.5L1.5 109L2 111L3 112.5L4 114L5 115L6.5 116.5L9.5 118.5L12 120L15 120.5H19.5H41H76L79 119.5L82 118L84.5 116L87 113.5L88.5 110.5L89.5 107.5V106V30H71V23L70.5 19.5L69 16L66.5 11.5L63.5 8L60.5 5.5L57.5 3.5L52 1.5L48.5 1H42L37.5 2L33.5 3.5L30 5.5L25.5 10L23 13.5L21 17.5L20 20.5L19.5 24V30H1ZM32 25V30H58.5V25.5L58 23L57 20.5L55.5 18L53.5 16L51 14.5L47.5 13.5H42.5L39.5 14.5L36.5 16.5L34.5 19L32.5 22L32 25ZM21 42.5V45L21.5 46L22.5 47.5L24.5 48.5H28.5L30 47L31 45V42.5L29.5 40L28 39H24.5L23.5 39.5L22 41L21 42.5ZM59.5 42.5V45L61 47.5L63 48.5H66.5L68 47.5L69.5 45V43L68.5 41L66.5 39H62.5L60.5 40.5L59.5 42.5Z" fill="#5CDB95"/>
<path d="M21 45V42.5L22 41L23.5 39.5L24.5 39H28L29.5 40L31 42.5V45L30 47L28.5 48.5H24.5L22.5 47.5L21.5 46L21 45Z" fill="#EDF5E1"/>
<path d="M59.5 45V42.5L60.5 40.5L62.5 39H66.5L68.5 41L69.5 43V45L68 47.5L66.5 48.5H63L61 47.5L59.5 45Z" fill="#EDF5E1"/>
<path d="M32 30V25L32.5 22L34.5 19L36.5 16.5L39.5 14.5L42.5 13.5H47.5L51 14.5L53.5 16L55.5 18L57 20.5L58 23L58.5 25.5V30H32Z" fill="#EDF5E1"/>
<path fill-rule="evenodd" clip-rule="evenodd" d="M1 30V106V107.5L1.5 109L2 111L3 112.5L4 114L5 115L6.5 116.5L9.5 118.5L12 120L15 120.5H19.5H41H76L79 119.5L82 118L84.5 116L87 113.5L88.5 110.5L89.5 107.5V106V30H71V23L70.5 19.5L69 16L66.5 11.5L63.5 8L60.5 5.5L57.5 3.5L52 1.5L48.5 1H42L37.5 2L33.5 3.5L30 5.5L25.5 10L23 13.5L21 17.5L20 20.5L19.5 24V30H1ZM32 25V30H58.5V25.5L58 23L57 20.5L55.5 18L53.5 16L51 14.5L47.5 13.5H42.5L39.5 14.5L36.5 16.5L34.5 19L32.5 22L32 25ZM21 42.5V45L21.5 46L22.5 47.5L24.5 48.5H28.5L30 47L31 45V42.5L29.5 40L28 39H24.5L23.5 39.5L22 41L21 42.5ZM59.5 42.5V45L61 47.5L63 48.5H66.5L68 47.5L69.5 45V43L68.5 41L66.5 39H62.5L60.5 40.5L59.5 42.5Z" stroke="black"/>
<path d="M21 45V42.5L22 41L23.5 39.5L24.5 39H28L29.5 40L31 42.5V45L30 47L28.5 48.5H24.5L22.5 47.5L21.5 46L21 45Z" stroke="black"/>
<path d="M59.5 45V42.5L60.5 40.5L62.5 39H66.5L68.5 41L69.5 43V45L68 47.5L66.5 48.5H63L61 47.5L59.5 45Z" stroke="black"/>
<path d="M32 30V25L32.5 22L34.5 19L36.5 16.5L39.5 14.5L42.5 13.5H47.5L51 14.5L53.5 16L55.5 18L57 20.5L58 23L58.5 25.5V30H32Z" stroke="black"/>
</svg>
