<svg width="119" height="100" viewBox="0 0 119 100" fill="none" xmlns="http://www.w3.org/2000/svg">
<path d="M0.5 88.5V90V91L1.5 91.5H4.22244L6 90.5L8.5 87.5L10.5 84.5L12 84L14 81.5L15.5 81L21 78.5L27 76L30.5 74L32.5 71.5H33.5L35 74.5L36.5 79.5L37.5 84V89.5L36 94.5H32.5L29.5 97L29 98L30 99H38L42.5 94L43 91.5L43.5 87.5L44 84.5L45 80.5L45.5 77.5L46.5 73L47.5 69.5L49.5 67.5L60 67L61.5 67.5L65.5 70L68.5 76L69.5 80.5L72.5 83.5V86.5L71 88L67 90.5L64 92.5H59L57.5 93V95L58 96.5L60.5 97H66L68 96L70.5 95.5L74 93L80.5 90L82.5 88.5L81.5 87V85.5L82 84V81L83 79V73.5H83.5L89 76.5L92.5 78.5L97.5 80L105.5 82.5L109.5 83.5L112 85V88L113 89V93.5L112.5 94.5H110L108.5 96V98L109 99.5H111.5H116L117 99L118 96L118.5 93.5V77.5L116 76L113 73.5L109.5 70.5L106 66.5L104.5 64L104 62V56L103 53L102 50V46.5L102.5 45.5L105.5 43.5L108.5 41L111.5 38L113.5 34.5L114 31.5L115 29V26.5L115.5 23.5L116 20.5V16.5L115 13.5L114.5 12L112.5 8.5L109 4L105.5 1.5L102 0.5H94.5L91.5 2.5L87 5L86.5 6.5L87 8L88 9H89L91 8L93 7L95 6H98H99.5L102.5 6.5L105.5 9.5L107.5 13L108.5 16V18V25.5L108 29.5L106 33L103 37.5L97.5 41.5H93L87.5 39.5L82.5 37.5L75 34.5L67 32L62 31H54.5L52 31.5L48.5 33L44.5 35L42.5 35.5L40.5 35L38 33.5V31L38.5 28.5L40 26L42 23.5L43.5 20.5L44 19.5L43.5 18.5H42.5L41 19L39 20L37 21L34.5 21.5H33.5L30.5 20L27 18L25.5 17.5H24.5L24 17V15L23.5 13.5L22.5 11L21.5 9.5L21 9H20.5L19 11V15.5L18 17.5L17 20L14 23.5V27L13.5 28V29L14 30L14.5 32L15.5 35L16 39V46.5L15 48.5V52.5L15.5 55L16.5 57.5L18 60.5L20 63.5V64.5V67.5L15.5 71.5L12 75L8 79L4.5 82.5L2.5 85L1 87L0.5 88.5Z" fill="#5CDB95"/>
</svg>
