<svg width="1728" height="130" viewBox="0 0 1728 130" fill="none" xmlns="http://www.w3.org/2000/svg">
<rect width="1728" height="130" fill="#1E1E1E"/>
<g clip-path="url(#clip0_0_1)">
<rect width="1728" height="130" fill="#05386B"/>
<g filter="url(#filter0_d_0_1)">
<path d="M76 123.5L75.5 124H77L77.5 123L78.5 122.5L79 121.5L79.5 121L80.5 120.5L81 119.5H81.5L83 118L84 116.5L84.5 116L85.5 115L87 114L87.5 113L87 112L88.5 111V110L89 108.5L90 108L90.5 107L91.5 106.5L92 105.5L91.5 105L92.5 104L93 102.5L93.5 101.5L94 99.5L94.5 98.5L93 99V100.5L92.5 101.5L92 103L91 103.5L90.5 104.5L90 105L89.5 105.5L90 106.5L89 107L88 108L87 109H86V110L85 111.5H84L82.5 112.5L83 113.5L83.5 114.5L83 115.5L82.5 116.5L81.5 117.5L81 118L79.5 118.5V119L79 119.5V120.5L78 121L77.5 122L77 123L76 123.5Z" fill="#EDF5E1"/>
<path d="M84 129L83.5 130H88L87.5 129L88 128.5C88.3333 128.167 89.1 127.5 89.5 127.5C89.9 127.5 90.3333 127.167 90.5 127L92 126L92.5 125V124.5L94 123.5V122.5L94.5 122L96 119.5V118H96.5L97.5 117.5L98 116.5L99.5 115L99 113.5H99.5L100.5 112.5V111.5L101.5 110L102.5 108.5L103.5 107V105.5L104 104.5L105 103L105.5 101.5L106 100L106.5 98.5L107 96L106.5 97L106 97.5V98.5L105.5 99L105 100.5L104 102L103 103.5L103.5 104L102.5 104.5V105.5L102 106.5L100.5 108V108.5L99 109.5V110.5L98 111L97 112.5L96 113.5L96.5 114V116H95.5V116.5H94L93.5 117L93 117.5L91.5 118L91 119.5V120.5L90.5 121.5H89.5L88.5 123L88 123.5H87.5L87 124L88 125V126L87 127V128L86 128.5L85 129H84Z" fill="#EDF5E1"/>
<path d="M97 129.5L96.5 130H102.5V129L103 128H103.5L104.5 127.5L105.5 127V125.5H106L107 125V122.5L107.5 122L108 120L109 118.5L109.5 117L110 116L111.5 115.5L112 114.5L111.5 113.5L113 112L114 110V108.5L114.5 108V107L115 105.5L115.5 104.5V103L116 102V101L116.5 99.5L117 97.5L116.5 98L116 99.5L115.5 100.5V101.5L115 102L114 102.5V103.5V104.5L113.5 105.5V106.5L113 108L112.5 109L111.5 109.5L110.5 111L110 112V114L108.5 115L107 115.5L107.5 116.5L106.5 117V118L105.5 118.5L105 119V119.5L104 120L103 121L102.5 122L103 124H101L101.5 124.5V125.5L101 127H100H99V127.5V128H98L97.5 129L97 129.5Z" fill="#EDF5E1"/>
<path d="M112.5 129.5L111.5 130H114L114.5 129L115 128H116L117 126.5H118L118.5 125.5V124L118 122.5L118.5 121.5L119.5 120L120.5 119L121 117L121.5 115V114.5L122.5 114L123 112.5L123.5 111V110L123 109V110.5L122.5 111.5L122 112.5L121.5 113L120.5 114.5V115.5V116.5L120 117.5L119 118V118.5L117.5 120L117 120.5L117.5 122L117 122.5L115.5 124L115 125L114 125.5L113 126V127.5L113.5 128L113 128.5L112.5 129.5Z" fill="#EDF5E1"/>
<path d="M11 8.5L10 4L12.5 10L14 13.5L16 16L17 17V19.5L19 21L18.5 22L17.5 22.5L18 23.5L20 24L21.5 25.5L21 27V30L23 33.5L25 34.5L23 36L25.5 39.5V42.5L27 46L24 43L22 40L20.5 37L17.5 32H16L16.5 30.5L15.5 28.5V27L13 25V23L12 22.5L12.5 19L12 16.5L11.5 14L10.5 13.5V12L11 8.5Z" fill="#EDF5E1"/>
<path d="M30 5V1.5L31 4.5L32 7L32.5 9L33.5 11L34.5 12L34 12.5L33.5 13.5V15.5L33 16L34.5 17H33.5V17.5L34 18.5L35 19.5V22.5L34 23.5V24.5L34.5 25.5L36.5 26.5L34.5 27.5L35.5 29L37 30L36 31V33.5L35.5 36L34.5 38V40L33.5 42.5L32.5 44.5V43L33 40.5V38.5L32.5 37V34.5L32 34V32L31.5 31.5L31 31L31.5 29.5L31 28L30.5 26.5L29.5 24.5L28.5 23.5V22L30 21V19.5L29 19L29.5 18.5L30 17L29.5 15.5L28.5 13.5L27.5 12.5L28 11.5L29 10.5L30 9V7.5H29L29.5 7L30 5Z" fill="#EDF5E1"/>
<path d="M40.5 42.5L39 45.5V46.5L40 45L42 42L43 40.5L44 38.5L44.5 37L45.5 35L46.5 33L47.5 31.5L48 30.5H49.5L49 29.5V28.5V26.5L50 25L51 23.5L51.5 22.5L52 20L52.5 18.5V16L53 12.5L54 12L53.5 11V8L54 5L54.5 2.5L54 3L53.5 4.5L53 5.5V6.5L52.5 7V8L52 9L51.5 9.5V11L50.5 12.5V13.5L49.5 15L48 16.5V18L47.5 19L46.5 20.5L47.5 21.5L48 22L47 23L46 23.5L44 25V26L44.5 26.5L45 28L44 29.5V31L43.5 32L42.5 33.5H41V34L42.5 35.5V36L40.5 38.5V42.5Z" fill="#EDF5E1"/>
<path d="M594.5 118L590.5 120L594 117L594.5 115L596.5 113.5L597.5 111L599.5 109.5L601 108.5L602.5 106.5L602 105.5L603 104L601.5 103L602.5 102L604 100.5L606 100L607 99L606.5 98V97L608 96.5L610.5 94.5L612 93.5V92.5L612.5 91L613.5 89.5L616 87L617 84.5L617.5 82L619.5 80.5V81.5L618 83.5V86L616.5 87V88.5L615.5 90L615 92L614.5 92.5L613 95L610.5 97V99L609 101V103.5L607.5 105L604.5 106.5L604 107.5L602.5 111L599.5 112.5L598 114.5L596 116L594.5 118Z" fill="#EDF5E1"/>
<path d="M601.5 129L600.5 130H608L609.5 128L609 126.5L610.5 125.5H612.5L614.5 123.5L616.5 121L617 119.5L618.5 117.5L619 116L620.5 114.5L621 112L622.5 110L624.5 109.5L625.5 107.5L626.5 103.5L628.5 102V100.5L629.5 98.5C630 97.6667 631.1 95.9 631.5 95.5C631.9 95.1 632.667 94 633 93.5V91L634 90L635 87.5L636.5 85.5L637 83L638 80.5V76.5L637 78.5V80.5L636 82.5L635.5 84L633.5 85L632 88L632.5 89.5L631.5 90.5V92.5L630 93.5L629 94L627.5 96.5L627 97L626.5 98L625.5 99.5L624 100L623 102L622 103L623 103.5L622.5 105.5L622 106.5L621.5 107L621 108L619.5 107.5L618 108L617.5 109L616.5 109.5L615 110.5L614.5 112L615 113L614 114.5L612.5 115.5L611.5 116L611 117.5L610 118.5H609V119.5L610 121.5L609 122.5L608.5 124V125.5L606.5 126L605 126.5L603.5 127L603 128L601.5 129Z" fill="#EDF5E1"/>
<path d="M622 129L621.5 130H628.5L629.5 129.5L631.5 128L632 126.5L633.5 125.5L635.5 124L635 122.5L637 121.5L638 121V119.5C638 119.1 638.333 117.667 638.5 117L639.5 114.5L640.5 113L641.5 111.5V109.5L642.5 107.5L644 107L646.5 105.5L645.5 105V103L647 101L648.5 99V96.5L650 95.5V93.5V91L651 88L652.5 86V85V84L653 79.5L652.5 81.5L651.5 83L651 85.5L650 86L649 88V89.5L648 92.5L647 96L645.5 97L644 98.5L642.5 101V104.5L640 105.5L638 108.5L636.5 110.5L634.5 113L632.5 114.5L632 118L631.5 119.5H630L629.5 123L626.5 124.5L624.5 126L623 127.5L622 129Z" fill="#EDF5E1"/>
<path d="M644 129.5L643 130H649L649.5 129V127L650.5 125.5L652.5 124.5L653.5 123.5L655 121.5L655.5 119.5L656 117V115L657.5 113L659 111L660 108L660.5 105L661.5 103.5L662.5 101L663 99V96L662.5 99.5L661.5 101L660.5 102.5L659 104.5V106.5L658.5 108L657.5 109.5L656.5 111L655 112.5L654 114V115.5L653.5 117.5L651.5 119L650.5 120.5L650 121.5L646.5 123L648 125L647 125.5V128H645.5L644 129.5Z" fill="#EDF5E1"/>
<path d="M1290.5 14L1290 12.5L1291.5 14.5V16.5L1293 17.5L1294 19V20L1294.5 21.5L1295 23L1297.5 25V27.5L1299 29.5L1300.5 31L1301 31.5L1303.5 33L1302.5 34.5L1303.5 35.5L1303 37L1305 37.5L1306 38.5L1307 40L1308 42L1309 44L1310.5 44.5L1311.5 45.5L1312.5 48.5L1315.5 52L1319 55.5L1317.5 54.5L1315.5 53.5L1314 51.5L1312 50L1310.5 49L1310 48L1309 45.5L1307.5 46L1306.5 44.5L1304 43.5L1305 43L1304.5 41.5L1303.5 40.5L1302.5 39.5L1301 38L1301.5 36.5L1300 35.5L1299 35L1298 33L1296.5 32.5L1296 30.5L1296.5 28.5L1295.5 27.5V26L1294 24.5L1293 22.5V20.5L1292 19V18L1291 17L1290.5 14Z" fill="#EDF5E1"/>
<path d="M1299 2L1298.5 0L1300 2V3.5L1301.5 4L1302 6L1301.5 6.5V7.5L1302.5 8.5L1302 9L1302.5 10L1303.5 12.5L1305 13L1306 15.5L1306.5 17.5L1307.5 18.5L1309.5 20.5L1310.5 22.5L1312.5 24.5L1314.5 26L1315.26 28L1315.5 30.5H1316.5L1317 33.5L1319.5 34.5L1320.5 35L1322 37L1323.25 37.5L1323.5 39.5L1324.5 40L1326 41L1326.5 42.5L1327 44.5V45.5H1328L1329.5 47L1331.5 48V49.5L1333 51.5H1334L1335.5 53.5L1337 55L1335.5 54.5L1334 53.5L1333 52.5L1332 52L1330.5 51.5L1329.5 50H1328L1327 49L1326 47V46L1325 45H1323.5L1322 44L1320.5 42.5V41.5L1320 40.5L1318 39.5L1317 38.5L1315.5 38L1315 36.5L1314.5 35.5L1313 34.5L1312 33.5L1311.5 32H1310.5L1310 31V28C1309.67 27.3333 1308.9 25.9 1308.5 25.5C1308.1 25.1 1307.67 24 1307.5 23.5L1307.1 22.5L1306.5 20.5H1305L1304 19L1304.5 18.5L1304 17.5L1303 16L1302 15L1301.5 13V11H1301V10L1300.5 8.5L1300 7L1299.5 5L1299 3.5V2Z" fill="#EDF5E1"/>
<path d="M1311.5 1.5L1310.5 0.5H1312L1312.5 2L1313.5 3.5L1315 5.5L1314.5 6L1315 6.5L1316 7.5L1315.5 8.5L1316.5 9.5L1318 10.5V12L1319 13L1319.5 14L1320.5 14.5L1322 16.5L1323 18L1322 19L1323 20L1323.5 20.5L1324 21H1324.5H1325.5L1326.5 21.5L1327 22.5L1328 23L1328.5 23.5L1329.5 24.5L1329 25V26L1330 27L1331 27.5L1331.5 29L1332.5 29.5L1333.5 30V30.5L1333 31.5V32.5L1333.5 33.5L1334 35L1335.5 35.5L1336.5 36H1337.5L1338 37.5L1339.5 38L1340.5 39.5L1341.5 41L1342 42L1343 43.5L1344 44L1345.5 46L1344 45L1343.5 44.5L1342.5 44L1341.5 43.5L1341 42L1339.5 41.5L1338.5 41H1337.5L1337 40L1335.5 39.5L1333.5 38.5L1332.5 37L1333 36L1331.5 34.5H1331L1330 34L1328.5 33.5L1327 32V30.5L1326 29.5L1325.5 28.5V28L1324 25.5L1323 24.5V23H1322L1321.5 22L1320.5 21.5L1319.5 20L1319 17.5L1318.5 17L1317.5 16V15L1317 13.5L1316 12.5L1315 11L1314.5 9L1315 8L1314.5 7L1313.5 6.5L1312.5 5L1312 4V2.5L1311.5 1.5Z" fill="#EDF5E1"/>
<path d="M1326 1.5L1325 0.5H1326L1327 1V2.5L1327.5 3L1328 5L1329 5.5L1329.5 6V6.5L1330 7.5L1331 8V9.5L1332 10.5L1334 12H1335V13L1334.5 13.5L1335 14L1336.5 15L1337.5 15.5L1339 16.5L1338.5 17.5V18.5V19.5L1339 21L1340 21.5L1340.5 23L1341.5 23.5H1342.5L1343 25L1344 26L1345 26.5V27.5L1346 29L1347.5 30H1346.5L1345.5 29L1344.5 28L1343.5 27.5L1342.5 26.5L1341.5 25.5V24.5H1340.5L1339.5 23.5L1338 22.5L1337 21.5V20.5L1336 20L1335 19L1333.5 17.5V16L1332.5 15L1332 13.5L1331.5 12L1330.5 11L1329.5 9.5H1328.5V8V7L1327.5 6.5V5L1327 4.5L1326.5 3.5H1326V2.5V1.5Z" fill="#EDF5E1"/>
<path d="M1471 126L1471.5 129.5V130H1476.5L1478 128.5L1476.5 126.5V124H1475L1473 120L1469 110L1470 115.5L1469.5 120L1470.5 120.5L1471.5 124.269L1471 126Z" fill="#EDF5E1"/>
<path d="M1488 129L1487.5 130H1493.5L1494 126.5L1492.5 124.269L1493.5 123.5L1492.5 122.5L1493.5 119.5L1493 118.5L1491.5 116L1489 108V112.5L1488 114.5H1489V116.5L1486.5 119.5L1488.5 122L1489 125.156L1488 126L1489 126.5V127.5L1488 129Z" fill="#EDF5E1"/>
<path d="M1507 129L1506 129.5L1505.25 130H1510.5L1511 128V125.5V123L1511.5 120L1513 119C1512.83 118.667 1512.5 117.9 1512.5 117.5V114.5L1513.5 109.5L1513 111L1511.5 113.5L1511 116L1510 118.5L1509.5 120L1508.5 122L1507.24 123.5V125.156L1506.5 126L1505.5 127.5V128.5L1507 129Z" fill="#EDF5E1"/>
<path d="M1661.5 2.5L1661 0H1666.5L1668.5 2.5V4.5L1669 5.5L1670.5 7.5L1672 8.5L1671.5 9.5L1669.5 11.5L1672 12.5L1675 14L1676.5 16L1675 18.5L1675.5 22.5L1677 26L1679 29H1682.5L1681 31L1679 33.5L1680 34.5L1682.5 38.5L1683 44.5L1685.5 49.5L1682.5 46.5L1681 44.5L1677 39.5L1675.5 36.5L1674 32.5L1671 28.5L1669 26L1667 26.5L1667.5 22.5L1666.5 20.5L1666 18L1665 17.5L1662.5 14L1662 11.5L1661 10.5L1660.5 8L1661 5.5L1661.5 2.5Z" fill="#EDF5E1"/>
<path d="M1689.5 2V0H1695L1697 1H1696L1695.5 2L1696 4L1697.5 5V10.5L1696.5 12.5V14.5L1698.5 16L1700 17V17.5L1698 18.5L1697.5 19L1698.5 21L1700.5 22L1700 24.5L1699.5 28.5L1698.5 30.5L1698 33L1697.5 35.5L1697 37.5L1696 41.5L1695.5 42.5L1695 44.5L1694.5 42.5V39.5V37.5L1694 33L1693.5 29L1693 28V24.5L1691.5 24L1692.5 23L1692 20.5L1691.5 18.5L1690.5 16.5L1689 14L1688 12L1687 11.5L1687.5 10L1689 9L1690 7.5L1689.5 5.5L1689 5L1688 4.5L1689 4L1689.5 2Z" fill="#EDF5E1"/>
<path d="M1719 1L1720 0H1726L1726.5 3V6.5L1725.5 8.5L1725 11L1724 12.5L1721.5 15L1721 18.5L1720.5 20.5L1721 23.5H1718.5L1716 29L1713 34.5L1711 39.5L1708.5 44L1704.5 48.5L1706.5 44L1707 42.5V40V36.5L1708.5 34L1710 32L1709 30.5L1707.5 28.5H1709.5L1710 27.5L1711.5 26L1712.5 23.5L1713 21L1713.5 18.5L1712.5 16.5C1712.67 15.8333 1713 14.4 1713 14C1713 13.6 1714 12.5 1714.5 12L1716.5 11L1718.5 9.5L1716 8L1717.5 6.5L1719.5 3L1719 1Z" fill="#EDF5E1"/>
</g>
</g>
<defs>
<filter id="filter0_d_0_1" x="6" y="0" width="1724.5" height="141" filterUnits="userSpaceOnUse" color-interpolation-filters="sRGB">
<feFlood flood-opacity="0" result="BackgroundImageFix"/>
<feColorMatrix in="SourceAlpha" type="matrix" values="0 0 0 0 0 0 0 0 0 0 0 0 0 0 0 0 0 0 127 0" result="hardAlpha"/>
<feOffset dy="7"/>
<feGaussianBlur stdDeviation="2"/>
<feComposite in2="hardAlpha" operator="out"/>
<feColorMatrix type="matrix" values="0 0 0 0 0 0 0 0 0 0 0 0 0 0 0 0 0 0 0.25 0"/>
<feBlend mode="normal" in2="BackgroundImageFix" result="effect1_dropShadow_0_1"/>
<feBlend mode="normal" in="SourceGraphic" in2="effect1_dropShadow_0_1" result="shape"/>
</filter>
<clipPath id="clip0_0_1">
<rect width="1728" height="130" fill="white"/>
</clipPath>
</defs>
</svg>
