<svg width="123" height="105" viewBox="0 0 123 105" fill="none" xmlns="http://www.w3.org/2000/svg">
<path d="M47 101H27.5L24 100.5L26 98.5L23 99L25.5 96.5H22.5L23.5 95.5L13.5 95L7.5 92L3.5 87L1 82L0 75.5V68L0.5 63L3 56.5L7.5 48.5L11 43L14 38.5L17.5 34.5L20.5 30.5L23.5 26.5L26 21.5L27.5 17L28.5 12L28 4.5L26.5 2V0.5H28L28.5 1.5L30.5 4.5L31.5 7.5V13.5L31 17.5L30 22.5L27.5 28L24 33.5L21 37.5L17 42.5L12 50L9 54.5L6 60.5L4.5 64.5V69.5V77.5L6 82.5L8 86L10.5 88.5L13.5 90L17.5 91H25.5V90L25 87L23.5 82.5L22.5 76.5L23 68L20.5 68.5L23 66L20.5 66.5L22.5 64L19.5 62.5H23V61L21 59H24L25 57L26 55L27 51.5L28.5 48.5L31.5 44.5L33.5 42L31 41.5L33.5 40.5L32.5 38.5L34.5 39L33.5 36.5L35.5 37.5L37.5 37L40 35.5L37 33L41 33.5L39.5 30.5L42.5 32.5L43 31.5L42.5 29.5L43.5 30.5L54.5 30L57.5 29.5L62 28L66 26.5V25H65L64 23V17.5L65 14.5L67 10.5L69.5 8L72 7H75L77 7.5L80.5 10L81 10.5L83 8.5L85 7L87 6.5L89.5 7L91 7.5L92.5 9L93.5 10.5L94.5 12L96 11.5L98 10.5H107L110 11.5L112.5 12L114.5 12.5L116 13H121.5L123 13.5V14.5V16L122 17V18V22L121.5 24L120 25.5L118 26H116.5V26.5L117.5 28L118 29L116 29.5L114 31L111 32.5L107 35L104.5 36H101.5L100.5 37.5L100 39V44L99.5 43.5L99 44.5L100.5 47.5L99 47V50L98.5 55L99.5 56.5L102 60L101.5 62L103 64.5L106.5 67.5L106 69V72L105 71.5L104.5 71L103.5 72H103L101.5 70.5L100 68.5L99.5 66.5H99L98 68H96.5L95.5 67.5L94.5 66.5H93L93.5 67.5L96.5 69.5L100 72L102 75.206V77.5L101 76V78L100 77.5L98.5 75L97.5 73.751L97 75L98.5 77.5L97.5 78L95 75H94L91.5 72L91 72.5L90.5 74L89.5 72.5H88L86 75L83.5 79V80V82L82.5 82.5L81.5 81.5V83.5V86L81 87L79.5 85.5V88L78.5 89.5L77.5 88.5L73 93V94L76 95L88 95.5L89 96.5L91.5 97H93.5L95 99H93.5L92.5 100L90 99V100.5H85L84 99H82L82.5 100.5H81L79 99H71L68.5 97L65.5 97.5L61.5 98.5V100H63.5L66 102L65.5 102.5V103.5L63 104.5H60.5L58 103.5L56.5 102H53L50.5 103.5V101H47Z" fill="#EDF5E1"/>
</svg>
