<svg width="85" height="116" viewBox="0 0 85 116" fill="none" xmlns="http://www.w3.org/2000/svg">
<path fill-rule="evenodd" clip-rule="evenodd" d="M38 55L39 50.5L40.5 45.5L42 41L45 35L50 29L53 25L55 24.5H57L58.5 22.5V20.5V19.5H57L55.5 21H52.5L50 20L46.5 19.5L51.5 17L52.5 15V13L51 14.5L50 16L49 17H45.5V20.5V23L46.5 25L43.5 22.5L41.5 19L41 16.5V12.5L42.5 8.5L44.5 6.5V4.5L46.5 2.5L48.5 1.5L52.5 1L55.5 0.5H61L65.5 1.5L69 4.5L72.5 8.5L74.5 12.5L76.5 15.5L78 19.5L79.5 24.5L80.5 27L81 28H84L85 31V38.5L84.5 41.5L83 47.5L80.5 52L77.5 55L74 57.5H73V56L70 59L67.5 62L64.5 66.5V68.5L68 71L71.5 74L74 77.5V80.5L72.5 82.5H71.5V79L70.5 77H69.5V76H64.5V77.5L66.5 80V82.5L65 85.5L64 86H61L63.5 84V80.5L61.5 78H58.5L58 80V81L59 83H57L56 81V79.5V78.5H55L53 80.5L52.5 81.5V83.5L51 82.5V80L53.5 77L56.5 74.5H59V73.5V72.5L53.5 72L51 71L48 75L44.5 79.5L40.5 85.5L37.5 91L34.5 97.5L31.5 106L30 112.5L29.5 116H26L27 105L29 97.5L23 108L27.5 95.5L32 85.5L27.5 89.5L23 93L15 98.5L9.5 100.5L6 101.5L20.5 92L25.5 87L20.5 89L17 92L10 94.5L0 95L9 93L16.5 90.5L20.5 87L15 89L26 80.5L31.5 74.5L36.5 68.5V60.5L38 55ZM57 67V67.5L60 69.5V64.5L57 67Z" fill="#EDF5E1"/>
</svg>
