<svg width="1728" height="101" viewBox="0 0 1728 101" fill="none" xmlns="http://www.w3.org/2000/svg">
<rect width="1728" height="100" fill="#05386B"/>
<g filter="url(#filter0_i_0_1)">
<path d="M83.5 93.5L83 94H84.5L85 93L86 92.5L86.5 91.5L87 91L88 90.5L88.5 89.5H89L90.5 88L91.5 86.5L92 86L93 85L94.5 84L95 83L94.5 82L96 81V80L96.5 78.5L97.5 78L98 77L99 76.5L99.5 75.5L99 75L100 74L100.5 72.5L101 71.5L101.5 69.5L102 68.5L100.5 69V70.5L100 71.5L99.5 73L98.5 73.5L98 74.5L97.5 75L97 75.5L97.5 76.5L96.5 77L95.5 78L94.5 79H93.5V80L92.5 81.5H91.5L90 82.5L90.5 83.5L91 84.5L90.5 85.5L90 86.5L89 87.5L88.5 88L87 88.5V89L86.5 89.5V90.5L85.5 91L85 92L84.5 93L83.5 93.5Z" fill="#FB0079"/>
<path d="M91.5 99L91 100H95.5L95 99L95.5 98.5C95.8333 98.1667 96.6 97.5 97 97.5C97.4 97.5 97.8333 97.1667 98 97L99.5 96L100 95V94.5L101.5 93.5V92.5L102 92L103.5 89.5V88H104L105 87.5L105.5 86.5L107 85L106.5 83.5H107L108 82.5V81.5L109 80L110 78.5L111 77V75.5L111.5 74.5L112.5 73L113 71.5L113.5 70L114 68.5L114.5 66L114 67L113.5 67.5V68.5L113 69L112.5 70.5L111.5 72L110.5 73.5L111 74L110 74.5V75.5L109.5 76.5L108 78V78.5L106.5 79.5V80.5L105.5 81L104.5 82.5L103.5 83.5L104 84V86H103V86.5H101.5L101 87L100.5 87.5L99 88L98.5 89.5V90.5L98 91.5H97L96 93L95.5 93.5H95L94.5 94L95.5 95V96L94.5 97V98L93.5 98.5L92.5 99H91.5Z" fill="#FB0079"/>
<path d="M104.5 99.5L104 100H110V99L110.5 98H111L112 97.5L113 97V95.5H113.5L114.5 95V92.5L115 92L115.5 90L116.5 88.5L117 87L117.5 86L119 85.5L119.5 84.5L119 83.5L120.5 82L121.5 80V78.5L122 78V77L122.5 75.5L123 74.5V73L123.5 72V71L124 69.5L124.5 67.5L124 68L123.5 69.5L123 70.5V71.5L122.5 72L121.5 72.5V73.5V74.5L121 75.5V76.5L120.5 78L120 79L119 79.5L118 81L117.5 82V84L116 85L114.5 85.5L115 86.5L114 87V88L113 88.5L112.5 89V89.5L111.5 90L110.5 91L110 92L110.5 94H108.5L109 94.5V95.5L108.5 97H107.5H106.5V97.5V98H105.5L105 99L104.5 99.5Z" fill="#FB0079"/>
<path d="M120 99.5L119 100H121.5L122 99L122.5 98H123.5L124.5 96.5H125.5L126 95.5V94L125.5 92.5L126 91.5L127 90L128 89L128.5 87L129 85V84.5L130 84L130.5 82.5L131 81V80L130.5 79V80.5L130 81.5L129.5 82.5L129 83L128 84.5V85.5V86.5L127.5 87.5L126.5 88V88.5L125 90L124.5 90.5L125 92L124.5 92.5L123 94L122.5 95L121.5 95.5L120.5 96V97.5L121 98L120.5 98.5L120 99.5Z" fill="#FB0079"/>
<path d="M250 85.5L249 81L251.5 87L253 90.5L255 93L256 94V96.5L258 98L257.5 99V100H251V99.5L251.5 96L251 93.5L250.5 91L249.5 90.5V89L250 85.5Z" fill="#FB0079"/>
<path d="M269 82V78.5L270 81.5L271 84L271.5 86L272.5 88L273.5 89L273 89.5L272.5 90.5V92.5L272 93L273.5 94H272.5V94.5L273 95.5L274 96.5V99.5V100H267L267.5 99L269 98V96.5L268 96L268.5 95.5L269 94L268.5 92.5L267.5 90.5L266.5 89.5L267 88.5L268 87.5L269 86V84.5H268L268.5 84L269 82Z" fill="#FB0079"/>
<path d="M286.5 98.5L287 99L286.5 100H291.5L291 97L291.5 95.5V93L292 89.5L293 89L292.5 88V85L293 82L293.5 79.5L293 80L292.5 81.5L292 82.5V83.5L291.5 84V85L291 86L290.5 86.5V88L289.5 89.5V90.5L288.5 92L287 93.5V95L286.5 96L285.5 97.5L286.5 98.5Z" fill="#FB0079"/>
<path d="M1478.5 96L1479 99.5V100H1484L1485.5 98.5L1484 96.5V94H1482.5L1480.5 90L1476.5 80L1477.5 85.5L1477 90L1478 90.5L1479 94.2692L1478.5 96Z" fill="#FB0079"/>
<path d="M1495.5 99L1495 100H1501L1501.5 96.5L1500 94.2692L1501 93.5L1500 92.5L1501 89.5L1500.5 88.5L1499 86L1496.5 78V82.5L1495.5 84.5H1496.5V86.5L1494 89.5L1496 92L1496.5 95.1557L1495.5 96L1496.5 96.5V97.5L1495.5 99Z" fill="#FB0079"/>
<path d="M1514.5 99L1513.5 99.5L1512.75 100H1518L1518.5 98V95.5V93L1519 90L1520.5 89C1520.33 88.6667 1520 87.9 1520 87.5V84.5L1521 79.5L1520.5 81L1519 83.5L1518.5 86L1517.5 88.5L1517 90L1516 92L1514.74 93.5V95.1557L1514 96L1513 97.5V98.5L1514.5 99Z" fill="#FB0079"/>
<path d="M1669.5 3L1669 0.5H1674.5L1676.5 3V5L1677 6L1678.5 8L1680 9L1679.5 10L1677.5 12L1680 13L1683 14.5L1684.5 16.5L1683 19L1683.5 23L1685 26.5L1687 29.5H1690.5L1689 31.5L1687 34L1688 35L1690.5 39L1691 45L1693.5 50L1690.5 47L1689 45L1685 40L1683.5 37L1682 33L1679 29L1677 26.5L1675 27L1675.5 23L1674.5 21L1674 18.5L1673 18L1670.5 14.5L1670 12L1669 11L1668.5 8.5L1669 6L1669.5 3Z" fill="#FB0079"/>
<path d="M1697.5 2.5V0.5H1703L1705 1.5H1704L1703.5 2.5L1704 4.5L1705.5 5.5V11L1704.5 13V15L1706.5 16.5L1708 17.5V18L1706 19L1705.5 19.5L1706.5 21.5L1708.5 22.5L1708 25L1707.5 29L1706.5 31L1706 33.5L1705.5 36L1705 38L1704 42L1703.5 43L1703 45L1702.5 43V40V38L1702 33.5L1701.5 29.5L1701 28.5V25L1699.5 24.5L1700.5 23.5L1700 21L1699.5 19L1698.5 17L1697 14.5L1696 12.5L1695 12L1695.5 10.5L1697 9.5L1698 8L1697.5 6L1697 5.5L1696 5L1697 4.5L1697.5 2.5Z" fill="#FB0079"/>
<path d="M1725.5 4.5L1727.5 3V17L1725 22.5L1722 28L1720 33L1717.5 37.5L1713.5 42L1715.5 37.5L1716 36V33.5V30L1717.5 27.5L1719 25.5L1718 24L1716.5 22H1718.5L1719 21L1720.5 19.5L1721.5 17L1722 14.5L1722.5 12L1721.5 10C1721.67 9.33333 1722 7.9 1722 7.5C1722 7.1 1723 6 1723.5 5.5L1725.5 4.5Z" fill="#FB0079"/>
</g>
<g filter="url(#filter1_i_0_1)">
<path d="M927.503 69.7665L928.75 61.4018L925.701 72.5449L923.873 79.0447L921.464 83.6796L920.263 85.5319L920.23 90.1836L917.834 92.9579L918.415 94.8227L919.597 95.7615L918.99 97.618L916.607 98.5315L916 100L924 100L924.936 96.7296L926.131 95.8077L925.583 89.2911L926.21 84.6436L926.837 79.996L928.031 79.0741L928.051 76.2831L927.503 69.7665Z" fill="#8EE4AF"/>
<path d="M904.977 63.0946L905.023 56.5822L903.795 62.1558L902.574 66.7991L901.954 70.5163L900.74 74.2293L899.538 76.0816L900.126 77.0161L900.707 78.881L900.68 82.6024L901.268 83.5369L899.473 85.385L900.661 85.3934L900.654 86.3237L900.047 88.1802L898.846 90.0325L898.806 95.6146L899.981 97.4837L899.968 99.3443L899.981 100L905 100L905.314 99.3821L906.515 97.5298L906.535 94.7388L904.766 92.8655L904.786 90.0745L905.98 89.1525L905.393 88.218L904.819 85.4228L905.433 82.6359L906.647 78.923L907.848 77.0707L907.267 75.2058L906.092 73.3367L904.924 70.5373L904.944 67.7463L906.132 67.7547L905.544 66.8201L904.977 63.0946Z" fill="#8EE4AF"/>
<path d="M884.543 96.4442L885.725 97.3829L886.5 100L880.5 100L879.785 97.3409L879.204 95.476L878.643 90.8201L878.068 88.0249L878.101 83.3732L877.553 76.8566L876.372 75.9178L876.979 74.0614L877.019 68.4793L876.464 62.8931L875.903 58.2371L876.49 59.1717L877.065 61.9669L877.645 63.8318L877.632 65.6925L878.22 66.627L878.207 68.4877L878.787 70.3526L879.375 71.2871L879.355 74.0781L880.523 76.8776L880.51 78.7383L881.679 81.5377L883.441 84.3413L883.421 87.1323L884.002 88.9972L885.17 91.7966L883.969 93.6489L883.369 94.5751L884.543 96.4442Z" fill="#8EE4AF"/>
<path d="M410.993 96.4917L414.537 99.308L414.577 99.5144L418.5 99.5144L416.933 96.5337L414.577 93.7259L412.808 91.8526L411.052 88.1187L411.659 86.2622L410.491 83.4627L412.286 81.6147L411.111 79.7456L409.349 76.942L406.98 75.9948L405.805 74.1257L406.412 72.2692L406.425 70.4086L404.65 69.4656L401.706 65.7233L399.937 63.85L399.95 61.9893L399.376 59.1941L398.208 56.3947L395.27 51.7219L394.115 47.0618L393.554 42.4059L391.198 39.5981L391.185 41.4587L392.94 45.1927L392.907 49.8445L394.676 51.7177L394.657 54.5088L395.825 57.3082L396.393 61.0338L396.98 61.9683L398.729 66.6326L401.673 70.375L401.647 74.0963L403.402 77.8303L403.37 82.482L405.132 85.2856L408.676 88.1019L409.257 89.9667L410.993 96.4917Z" fill="#8EE4AF"/>
<path d="M396.149 95.4565L396.724 98.2517L396.724 99.5145L389.5 99.5145L389.002 98.1971L387.246 94.4632L384.876 93.516L383.715 89.7862L382.579 82.3351L380.223 79.5273L380.242 76.7362L379.081 73.0065C378.498 71.4517 377.214 68.1553 376.744 67.4076C376.274 66.66 375.378 64.6068 374.988 63.6737L375.021 59.0219L373.846 57.1529L372.691 52.4928L370.936 48.7588L370.374 44.1029L369.219 39.4427L369.272 32L370.433 35.7298L370.407 39.4511L371.569 43.1809L372.143 45.9762L374.506 47.8536L376.249 53.4483L375.635 56.2351L376.81 58.1042L376.783 61.8256L378.552 63.6989L379.734 64.6376L381.483 69.3019L382.07 70.2364L382.651 72.1013L383.82 74.9008L385.595 75.8437L386.757 79.5735L387.932 81.4425L386.737 82.3645L387.305 86.09L387.886 87.9549L388.473 88.8895L389.054 90.7543L390.843 89.8366L392.618 90.7795L393.199 92.6444L394.38 93.5832L396.149 95.4565Z" fill="#8EE4AF"/>
<path d="M368.851 91.542L370.607 95.2759L373 99.5144L365 99.5145L364.653 97.0946L364.68 93.3733L363.518 89.6435L361.743 88.7006L358.792 85.8885L359.987 84.9666L360.013 81.2452L358.257 77.5113L356.502 73.7773L356.534 69.1256L354.766 67.2523L354.792 63.5309L354.825 58.8792L353.676 53.2888L351.92 49.5548L351.934 47.6941L351.947 45.8334L351.412 37.4561L351.98 41.1817L353.148 43.9811L353.709 48.6371L354.89 49.5758L356.052 53.3056L356.033 56.0966L357.181 61.687L358.323 68.2078L360.092 70.0811L361.854 72.8847L363.603 77.549L363.557 84.0614L366.514 85.9431L368.851 91.542Z" fill="#8EE4AF"/>
<path d="M346.84 96.0384L348.602 98.842L349 99.5145L345.5 99.5145L343.869 96.0174L342.721 90.4269L342.166 84.8406L340.998 82.0412L339.843 77.3811L339.275 73.6555L339.315 68.0735L339.863 74.5901L341.031 77.3895L342.199 80.1889L343.955 83.9229L343.929 87.6443L344.503 90.4395L345.671 93.2389L346.84 96.0384Z" fill="#8EE4AF"/>
<path d="M1307.12 92.2794L1305.92 93.2014L1305 96.738L1305 100.03L1300.53 100.03L1300.53 99.676L1302.96 92.25L1307.84 73.6768L1306.58 83.9021L1307.12 92.2794Z" fill="#8EE4AF"/>
<path d="M1286.93 91.2064L1284.52 95.8413L1285 100.03L1279.74 100.03L1278.56 98.5903L1279.76 96.738L1278.61 91.1476L1279.22 89.2911L1281.03 84.6519L1284.11 69.7875L1284.05 78.1605L1285.21 81.8903L1284.02 81.8819L1284 85.6033L1286.93 91.2064Z" fill="#8EE4AF"/>
<path d="M1260.76 95.6733L1262.24 98.4749L1262.24 100.03L1257.87 100.03L1257.78 97.513L1257.22 91.9268L1255.45 90.0535C1255.65 89.4347 1256.06 88.011 1256.07 87.2667L1256.1 81.6846L1254.98 72.3728L1255.56 75.168L1257.31 79.8323L1257.87 84.4882L1259.02 89.1483L1259.6 91.9436L1260.76 95.6733Z" fill="#8EE4AF"/>
<path d="M52.8857 12.4126L54.7072 6.84317L57 0.500002L51.0001 0.500002L50.5885 1.23174L49.3873 3.08401L46.3647 10.5058L45.6918 21.6657L42.6559 30.9481L46.2595 25.3912L48.0679 21.6825L52.8857 12.4126Z" fill="#8EE4AF"/>
<path d="M32.0952 12.2657L32.1215 8.54435L32 5L32 3L31.5 0.500001L28 0.500002L28.5838 4.79779L29.1515 8.52336L30.2869 15.9745L30.8678 17.8394L31.4355 21.5649L32.0557 17.8478L32.0952 12.2657Z" fill="#8EE4AF"/>
<path d="M17.2844 6.5787L15.5352 1.91439L15.0001 0.500002L9.50004 0.500002L10.1825 2.80695L12.4928 12.1272L15.4037 20.5212L20.0966 28.9279L17.7798 20.538L17.2055 17.7428L17.2384 13.0911L17.2844 6.5787Z" fill="#8EE4AF"/>
</g>
<g filter="url(#filter2_i_0_1)">
<path d="M1038.27 95.0964L1038.96 99.009L1038.96 100L1031.12 100L1029.97 98.576L1029.63 96.6197L1032.69 95.0703L1037.4 90.2058L1040.3 87.6783L1039.95 85.722L1040.52 82.5972L1042.16 79.282L1046.69 73.4393L1047.99 68.1678L1048.21 63.0867L1052.01 59.3907L1052.36 61.3469L1049.81 65.8307L1050.67 70.7214L1047.77 73.2489L1048.29 76.1833L1046.65 79.4985L1046.26 83.6014L1045.35 84.77L1042.98 90.2319L1038.27 95.0964Z" fill="#FB0079"/>
<path d="M1068.46 95.8242L1066.99 100.118L1079 100L1078.87 98.0231L1078.35 95.0887L1079.82 90.7953C1080.61 88.9747 1082.38 85.0997 1083.1 84.1649C1083.83 83.23 1085.1 80.7862 1085.65 79.6811L1084.79 74.7904L1086.6 72.4534L1087.9 67.1819L1090.45 62.6981L1090.67 57.617L1091.97 52.3455L1090.59 44.5205L1089.12 48.8138L1089.81 52.7263L1088.34 57.0197L1087.77 60.1445L1083.8 62.8624L1081.6 69.3025L1083.19 72.0464L1081.38 74.3835L1082.07 78.2961L1079.17 80.8236L1077.19 82.1825L1074.81 87.6444L1073.9 88.813L1073.17 90.9596L1071.52 94.2749L1068.46 95.8242Z" fill="#FB0079"/>
<path d="M1108.76 90.7353L1109.96 97.5823L1110.5 100L1117 100L1116.62 97.418L1115.93 93.5054L1118.48 89.0217L1121.03 84.5379L1120.16 79.6472L1123.06 77.1197L1122.37 73.2072L1121.51 68.3165L1122.63 62.0669L1125.18 57.5832L1124.83 55.6269L1124.49 53.6706L1124.02 44.677L1123.63 48.7799L1121.99 52.0952L1121.77 57.1762L1119.78 58.5352L1118.31 62.8285L1118.83 65.7629L1117.7 72.0126L1116.75 79.2404L1113.86 81.7678L1111.13 85.2735L1108.76 90.7353Z" fill="#FB0079"/>
<path d="M1146.29 95.2113L1145.73 98.3361L1145.5 100L1149 100L1148.97 97.7649L1149.01 91.7057L1150.65 88.3905L1151.95 83.119L1152.34 79.016L1151.31 73.1472L1151.43 80.1846L1149.79 83.4998L1148.15 86.815L1145.6 91.2988L1146.29 95.2113Z" fill="#FB0079"/>
</g>
<defs>
<filter id="filter0_i_0_1" x="83" y="0.5" width="1644.5" height="103.5" filterUnits="userSpaceOnUse" color-interpolation-filters="sRGB">
<feFlood flood-opacity="0" result="BackgroundImageFix"/>
<feBlend mode="normal" in="SourceGraphic" in2="BackgroundImageFix" result="shape"/>
<feColorMatrix in="SourceAlpha" type="matrix" values="0 0 0 0 0 0 0 0 0 0 0 0 0 0 0 0 0 0 127 0" result="hardAlpha"/>
<feOffset dy="7"/>
<feGaussianBlur stdDeviation="2"/>
<feComposite in2="hardAlpha" operator="arithmetic" k2="-1" k3="1"/>
<feColorMatrix type="matrix" values="0 0 0 0 0 0 0 0 0 0 0 0 0 0 0 0 0 0 0.25 0"/>
<feBlend mode="normal" in2="shape" result="effect1_innerShadow_0_1"/>
</filter>
<filter id="filter1_i_0_1" x="9.50004" y="0.500002" width="1298.34" height="103.53" filterUnits="userSpaceOnUse" color-interpolation-filters="sRGB">
<feFlood flood-opacity="0" result="BackgroundImageFix"/>
<feBlend mode="normal" in="SourceGraphic" in2="BackgroundImageFix" result="shape"/>
<feColorMatrix in="SourceAlpha" type="matrix" values="0 0 0 0 0 0 0 0 0 0 0 0 0 0 0 0 0 0 127 0" result="hardAlpha"/>
<feOffset dy="7"/>
<feGaussianBlur stdDeviation="2"/>
<feComposite in2="hardAlpha" operator="arithmetic" k2="-1" k3="1"/>
<feColorMatrix type="matrix" values="0 0 0 0 0 0 0 0 0 0 0 0 0 0 0 0 0 0 0.25 0"/>
<feBlend mode="normal" in2="shape" result="effect1_innerShadow_0_1"/>
</filter>
<filter id="filter2_i_0_1" x="1029.63" y="44.5204" width="122.714" height="59.5971" filterUnits="userSpaceOnUse" color-interpolation-filters="sRGB">
<feFlood flood-opacity="0" result="BackgroundImageFix"/>
<feBlend mode="normal" in="SourceGraphic" in2="BackgroundImageFix" result="shape"/>
<feColorMatrix in="SourceAlpha" type="matrix" values="0 0 0 0 0 0 0 0 0 0 0 0 0 0 0 0 0 0 127 0" result="hardAlpha"/>
<feOffset dy="7"/>
<feGaussianBlur stdDeviation="2"/>
<feComposite in2="hardAlpha" operator="arithmetic" k2="-1" k3="1"/>
<feColorMatrix type="matrix" values="0 0 0 0 0 0 0 0 0 0 0 0 0 0 0 0 0 0 0.25 0"/>
<feBlend mode="normal" in2="shape" result="effect1_innerShadow_0_1"/>
</filter>
</defs>
</svg>
