<svg width="128" height="128" viewBox="0 0 128 128" fill="none" xmlns="http://www.w3.org/2000/svg">
<path fill-rule="evenodd" clip-rule="evenodd" d="M18 33V109V110.5L18.5 112L19 114L20 115.5L21 117L22 118L23.5 119.5L26.5 121.5L29 123L32 123.5H36.5H58H93L96 122.5L99 121L101.5 119L104 116.5L105.5 113.5L106.5 110.5V109V33H88V26L87.5 22.5L86 19L83.5 14.5L80.5 11L77.5 8.5L74.5 6.5L69 4.5L65.5 4H59L54.5 5L50.5 6.5L47 8.5L42.5 13L40 16.5L38 20.5L37 23.5L36.5 27V33H18ZM49 28V33H75.5V28.5L75 26L74 23.5L72.5 21L70.5 19L68 17.5L64.5 16.5H59.5L56.5 17.5L53.5 19.5L51.5 22L49.5 25L49 28ZM38 45.5V48L38.5 49L39.5 50.5L41.5 51.5H45.5L47 50L48 48V45.5L46.5 43L45 42H41.5L40.5 42.5L39 44L38 45.5ZM76.5 45.5V48L78 50.5L80 51.5H83.5L85 50.5L86.5 48V46L85.5 44L83.5 42H79.5L77.5 43.5L76.5 45.5Z" fill="#5CDB95"/>
<path d="M38 48V45.5L39 44L40.5 42.5L41.5 42H45L46.5 43L48 45.5V48L47 50L45.5 51.5H41.5L39.5 50.5L38.5 49L38 48Z" fill="#EDF5E1"/>
<path d="M76.5 48V45.5L77.5 43.5L79.5 42H83.5L85.5 44L86.5 46V48L85 50.5L83.5 51.5H80L78 50.5L76.5 48Z" fill="#EDF5E1"/>
<path d="M49 33V28L49.5 25L51.5 22L53.5 19.5L56.5 17.5L59.5 16.5H64.5L68 17.5L70.5 19L72.5 21L74 23.5L75 26L75.5 28.5V33H49Z" fill="#05386B"/>
</svg>
